<?xml version="1.0" encoding="utf-8"?>
<!-- Generator: Adobe Illustrator 22.0.0, SVG Export Plug-In . SVG Version: 6.00 Build 0)  -->
<svg version="1.1" id="Layer_1" xmlns="http://www.w3.org/2000/svg" xmlns:xlink="http://www.w3.org/1999/xlink" x="0px" y="0px"
	 viewBox="0 0 235 225" style="enable-background:new 0 0 235 225;" xml:space="preserve">
<style type="text/css">
	.st0{fill:#0E73BA;}
	.st1{fill:#EC2224;}
	.st2{fill:#419EDA;}
	.st3{fill:#231F20;}
</style>
<g>
	<path class="st0" d="M-490.4,69.2h26.8v26.1h-26.8V69.2L-490.4,69.2z M-457.4,69.2h26.8v26.1h-26.8V69.2L-457.4,69.2z M-457.4,35.8
		h26.8v26.1h-26.8C-457.4,61.8-457.4,35.8-457.4,35.8z M-424.5,69.2h26.8v26.1h-26.8V69.2L-424.5,69.2z M-424.5,35.8h26.8v26.1
		h-26.8V35.8z M-391.6,69.2h26.8v26.1h-26.8V69.2L-391.6,69.2z M-391.6,35.8h26.8v26.1h-26.8V35.8z M-358.6,69.2h26.8v26.1h-26.8
		V69.2L-358.6,69.2z M-391.6,2.2h26.8v26.1h-26.8V2.2z"/>
	<path class="st1" d="M-331.9,101.9h-36.3l47.3,45.5c-12.1-4.6-66.9-25.3-66.9-25.3L-403,195c-1.9-12.5-10.7-69.4-10.7-69.4
		l-54.1,35.5c13.2-17.4,40.3-52.9,40.3-52.9l-19.5-6.4h-43.4l-1.9,5.3c0,0,19.2,7.2,34.6,13.1c-13.9,18-32.8,42.7-32.8,42.7
		l14.1,27.4c0,0,26.2-16.8,46.1-29.5c1.4,12.1,7.3,62,7.3,62h39.8c0,0,9.6-53.9,12-67.3c11.8,5.2,61.2,26.6,61.2,26.6l26-38.7
		C-284.1,143.5-321,111.4-331.9,101.9z"/>
	<path class="st1" d="M-400.9,115.5c7.5-1.1,14.1-6.7,16.9-13.5h-33.6C-417.3,110.8-410.3,116.9-400.9,115.5z"/>
</g>
<g>
	<path class="st2" d="M349.7,41.5H374v24.3h-24.3V41.5L349.7,41.5z M380.1,41.5h24.3v24.3h-24.3V41.5L380.1,41.5z M380.1,11.1h24.3
		v24.3h-24.3V11.1z M410.5,41.5h24.3v24.3h-24.3V41.5L410.5,41.5z M410.5,11.1h24.3v24.3h-24.3V11.1z M440.9,41.5h24.3v24.3h-24.3
		V41.5L440.9,41.5z M440.9,11.1h24.3v24.3h-24.3V11.1z M471.3,41.5h24.3v24.3h-24.3V41.5L471.3,41.5z M440.9-19.3h24.3V5h-24.3
		V-19.3z"/>
	<path class="st2" d="M496.8,71.9h-34l43.8,42.6c-10.9-3.6-62-23.1-62-23.1l-13.4,66.9c-1.2-10.9-9.7-64.4-9.7-64.4l-49.9,32.8
		c12.2-15.8,37.7-48.6,37.7-48.6L391,71.9h-41.3l-1.2,4.9c0,0,18.2,6.1,31.6,12.2c-12.2,17-30.4,40.1-30.4,40.1l13.4,24.3
		c0,0,24.3-15.8,42.6-26.8c1.2,10.9,7.3,57.2,7.3,57.2h36.5c0,0,8.5-49.9,10.9-62c10.9,4.9,55.9,24.3,55.9,24.3l24.3-35.3
		C540.6,110.8,506.5,80.4,496.8,71.9z"/>
	<path class="st2" d="M432.3,85.3c7.3-1.2,13.4-6.1,15.8-12.2h-31.6C417.7,80.4,423.8,86.5,432.3,85.3z"/>
</g>
<g>
	<path class="st1" d="M80.4-181.8c0,0-22.1,5.4-27.6,6.7c2.1-9.5,4.8-21.6,4.8-21.6L43.4-198c0,0-7.7,10.7-13.4,18.7
		c-5.2-5-11.7-11.2-11.7-11.2l-11.6,8.2c0,0,1.5,9.5,2.7,17c-8.2,1.7-18.7,3.8-18.7,3.8l-4.7,13.3c0,0,9,3.4,16.2,6.1
		c-6.5,8.4-15.4,20-15.4,20l6.7,12.9c0,0,12.3-7.9,21.6-13.9c0.7,5.7,3.4,29.1,3.4,29.1l18.7,0c0,0,4.5-25.3,5.6-31.6
		c5.5,2.4,28.8,12.5,28.8,12.5l12.2-18.2c0,0-18.6-16.1-23-20c11.1-6.5,26.7-15.7,26.7-15.7L80.4-181.8z M72.4-170l-29.5,17.9
		l23.6,22.8c-5.7-2.2-31.5-11.9-31.5-11.9l-7,34.3c-0.9-5.8-5-32.6-5-32.6l-25.4,16.7c6.2-8.2,18.9-24.9,18.9-24.9l-21.2-6.9
		c3.7-0.6,24.3-4.3,24.3-4.3l-4.4-22c2.1,2.3,14.4,15.4,14.4,15.4l16.9-23.8c-1,4-6.5,26.3-6.5,26.3L72.4-170z"/>
	<path class="st1" d="M21.2-151.4c-0.2,4.5,3.2,7.7,7.8,7c4.7-0.7,8.7-5.2,8.7-9.9c0-4.5-3.7-7.4-8.3-6.5
		C25.1-159.9,21.5-155.8,21.2-151.4"/>
	<path class="st3" d="M117.5-157.4c-1.9,0-4.5,0.3-4.5,2.9c0,3.7,9.6,2.3,12.1,2.3c10.9,0,18.9,2.5,18.9,15.7
		c0,15-10.4,17.1-22.2,17.1H99.5v-13c7.6,0,15.2,0.1,22.8,0.1c2.5,0,7.2-0.1,7.2-3.7c0-4.5-9.8-3.3-12.6-3.3
		c-10.6,0-16.8-3.7-16.8-15.7c0-13.7,8.8-15.6,19.9-15.6h24.9l-7.1,13.2C131-157.3,124.2-157.4,117.5-157.4"/>
	<path class="st3" d="M177.8-118.8c-19.6,0-27.1-5.8-27.1-27c0-17.5,8-24.8,24.3-24.8c18.5,0,27.2,5.6,27.2,26.1
		C202.2-126.1,195.1-118.8,177.8-118.8 M185.7-143.8c0-7.3-1.3-14.2-9.6-14.2c-7.9,0-9.2,6.8-9.2,13.5c0,7,0.7,14.6,9.1,14.6
		C184-129.9,185.7-136.8,185.7-143.8"/>
	<rect x="210.1" y="-188.3" class="st3" width="15.4" height="68.9"/>
	<path class="st3" d="M259.6-118.8c-19.6,0-27.1-5.8-27.1-27c0-17.5,8-24.8,24.3-24.8c18.5,0,27.2,5.6,27.2,26.1
		C284-126.1,276.9-118.8,259.6-118.8 M267.5-143.8c0-7.3-1.3-14.2-9.7-14.2c-7.9,0-9.2,6.8-9.2,13.5c0,7,0.7,14.6,9.1,14.6
		C265.8-129.9,267.5-136.8,267.5-143.8"/>
	<path class="st3" d="M322.7-129.9l-6.8,10.5h-3.7c-17,0-22.2-9.2-22.2-25.9c0-5,0.6-11.1,3-15.6c6.5-11.9,18.4-9.6,29.7-9.6v-17.8
		h15.3v68.9h-15.3V-129.9z M322.7-132.3V-156h-5.3c-8.3,0-11.4,2.7-11.4,11.7c0,10.2,3.4,12.3,12.5,12.1L322.7-132.3z"/>
	<path class="st3" d="M360.9-139.4c1.8,4.7,4.2,6.7,9.1,7.1c7,0.5,14.2,0,21.1,0l-6.7,13c-4.5,0-9,0.1-13.4,0.1
		c-2.7,0-5.2,0-7.9-0.2c-14.2-1-17.8-12.7-17.8-25.7c0-15.8,7.8-25.6,23.2-25.6c17.1,0,23.5,9.2,23.5,26.4c0,1.1,0.1,4.2-0.3,5
		H360.9z M376.7-150.3c-0.6-5.3-2.1-8.3-7.6-8.3c-5.1,0-8,3-8.5,8.3H376.7z"/>
	<polygon class="st3" points="418.7,-139.3 428.8,-170.5 445,-170.5 427.2,-119.4 410.3,-119.4 392.1,-170.5 408.4,-170.5 	"/>
	<g>
		<path class="st3" d="M457.9-170.3c0,0.7-0.1,1.3-0.4,1.8c-0.2,0.5-0.6,1-1,1.4c-0.4,0.4-0.9,0.7-1.4,0.9c-0.5,0.2-1.1,0.3-1.7,0.3
			c-0.6,0-1.2-0.1-1.8-0.3c-0.5-0.2-1-0.5-1.4-0.9c-0.4-0.4-0.7-0.9-0.9-1.4c-0.2-0.5-0.3-1.1-0.3-1.8c0-0.7,0.1-1.3,0.4-1.8
			c0.2-0.5,0.6-1,1-1.4s0.9-0.7,1.4-0.9c0.5-0.2,1.1-0.3,1.7-0.3c0.6,0,1.1,0.1,1.7,0.3c0.5,0.2,1,0.5,1.4,0.9
			c0.4,0.4,0.7,0.9,1,1.4C457.8-171.6,457.9-171,457.9-170.3z M457-170.3c0-0.5-0.1-1-0.3-1.5c-0.2-0.5-0.4-0.8-0.7-1.2
			s-0.7-0.6-1.1-0.8c-0.4-0.2-0.9-0.3-1.3-0.3c-0.5,0-0.9,0.1-1.4,0.3c-0.4,0.2-0.8,0.4-1.1,0.8s-0.6,0.7-0.7,1.2
			c-0.2,0.5-0.3,1-0.3,1.5c0,0.5,0.1,1,0.2,1.4c0.2,0.4,0.4,0.8,0.7,1.2c0.3,0.3,0.7,0.6,1.1,0.8c0.4,0.2,0.9,0.3,1.4,0.3
			c0.5,0,0.9-0.1,1.3-0.3c0.4-0.2,0.8-0.4,1.1-0.8s0.6-0.7,0.7-1.2C456.9-169.2,457-169.7,457-170.3z M452.6-167.7h-0.8v-4.9h1.9
			c0.6,0,1,0.1,1.4,0.3c0.3,0.2,0.5,0.6,0.5,1.1c0,0.4-0.1,0.8-0.4,1c-0.2,0.2-0.6,0.3-0.9,0.4l1.4,2.2h-0.9l-1.3-2.1h-0.8V-167.7z
			 M453.6-170.5c0.2,0,0.3,0,0.4,0c0.1,0,0.3,0,0.4-0.1c0.1-0.1,0.2-0.1,0.3-0.2c0.1-0.1,0.1-0.2,0.1-0.4c0-0.1,0-0.3-0.1-0.3
			s-0.2-0.2-0.3-0.2c-0.1,0-0.2-0.1-0.4-0.1c-0.1,0-0.3,0-0.4,0h-1v1.4H453.6z"/>
	</g>
</g>
<g>
	<g>
		<g>
			<path class="st1" d="M188.5,28c0,0-35.4,8.6-44.2,10.7c3.3-15.1,7.6-34.5,7.6-34.5L129.3,2c0,0-12.3,17.1-21.5,29.9
				c-8.4-8-18.7-18-18.7-18L70.5,27c0,0,2.4,15.2,4.4,27.3C61.8,56.9,45,60.3,45,60.3l-7.5,21.3c0,0,14.4,5.4,26,9.8
				c-10.4,13.5-24.6,32.1-24.6,32.1l10.6,20.6c0,0,19.7-12.6,34.6-22.2c1.1,9.1,5.5,46.6,5.5,46.6l29.9,0c0,0,7.2-40.5,9-50.6
				c8.9,3.9,46,20,46,20l19.5-29c0,0-29.7-25.8-36.8-31.9C175,66.5,200,51.8,200,51.8L188.5,28z M175.7,46.8l-47.2,28.6l37.8,36.5
				c-9.1-3.5-50.3-19-50.3-19l-11.3,54.8c-1.4-9.3-8.1-52.2-8.1-52.2l-40.7,26.7c9.9-13.1,30.3-39.8,30.3-39.8l-33.9-11
				c5.9-1,38.9-6.9,38.9-6.9l-7-35.2c3.4,3.6,23.1,24.6,23.1,24.6l27-38c-1.6,6.4-10.4,42.2-10.4,42.2L175.7,46.8z"/>
			<path class="st1" d="M93.7,76.6c-0.4,7.2,5.1,12.3,12.6,11.2c7.6-1.1,13.9-8.3,13.9-15.8c0-7.3-6-11.8-13.2-10.4
				C100,63,94.1,69.6,93.7,76.6"/>
		</g>
		<g>
			<path d="M19.1,199.4c-1.2,0-2.7,0.2-2.7,1.8c0,2.2,5.9,1.4,7.4,1.4c6.6,0,11.6,1.5,11.6,9.6c0,9.2-6.3,10.5-13.6,10.5H8.1v-7.9
				c4.7,0,9.3,0.1,13.9,0.1c1.5,0,4.4-0.1,4.4-2.2c0-2.8-6-2-7.7-2c-6.5,0-10.3-2.2-10.3-9.6c0-8.4,5.4-9.5,12.1-9.5h15.2l-4.3,8
				C27.3,199.5,23.2,199.4,19.1,199.4"/>
			<path d="M55.9,223c-12,0-16.6-3.5-16.6-16.5c0-10.7,4.9-15.1,14.8-15.1c11.3,0,16.6,3.4,16.6,15.9C70.8,218.5,66.4,223,55.9,223
				 M60.7,207.7c0-4.4-0.8-8.7-5.9-8.7c-4.8,0-5.6,4.1-5.6,8.3c0,4.3,0.4,8.9,5.6,8.9C59.7,216.2,60.7,212,60.7,207.7"/>
			<rect x="75.6" y="180.6" width="9.4" height="42"/>
			<path d="M105.8,223c-12,0-16.5-3.5-16.5-16.5c0-10.7,4.9-15.1,14.8-15.1c11.3,0,16.6,3.4,16.6,15.9
				C120.7,218.5,116.4,223,105.8,223 M110.7,207.7c0-4.4-0.8-8.7-5.9-8.7c-4.8,0-5.6,4.1-5.6,8.3c0,4.3,0.4,8.9,5.6,8.9
				C109.6,216.2,110.7,212,110.7,207.7"/>
			<path d="M144.4,216.2l-4.2,6.4H138c-10.4,0-13.6-5.6-13.6-15.8c0-3.1,0.4-6.8,1.8-9.5c4-7.3,11.2-5.8,18.1-5.8v-10.9h9.4v42h-9.4
				V216.2z M144.4,214.7v-14.5h-3.3c-5.1,0-7,1.7-7,7.1c0,6.2,2.1,7.5,7.6,7.4L144.4,214.7z"/>
			<path d="M167.7,210.4c1.1,2.9,2.6,4.1,5.6,4.3c4.3,0.3,8.6,0,12.9,0l-4.1,7.9c-2.7,0-5.5,0.1-8.2,0.1c-1.6,0-3.2,0-4.8-0.1
				c-8.6-0.6-10.9-7.7-10.9-15.7c0-9.6,4.8-15.7,14.2-15.7c10.4,0,14.4,5.6,14.4,16.1c0,0.7,0.1,2.5-0.2,3.1H167.7z M177.3,203.7
				c-0.3-3.2-1.3-5.1-4.7-5.1c-3.1,0-4.9,1.8-5.2,5.1H177.3z"/>
			<polygon points="203,210.4 209.1,191.4 219,191.4 208.2,222.6 197.8,222.6 186.7,191.4 196.7,191.4 			"/>
			<g>
				<path d="M226.9,191.5c0,0.4-0.1,0.8-0.2,1.1c-0.1,0.3-0.3,0.6-0.6,0.9c-0.2,0.2-0.5,0.4-0.9,0.6c-0.3,0.1-0.7,0.2-1,0.2
					c-0.4,0-0.8-0.1-1.1-0.2c-0.3-0.1-0.6-0.3-0.8-0.6c-0.2-0.2-0.4-0.5-0.6-0.9c-0.1-0.3-0.2-0.7-0.2-1.1c0-0.4,0.1-0.8,0.2-1.1
					c0.1-0.3,0.3-0.6,0.6-0.9c0.2-0.2,0.5-0.4,0.9-0.6c0.3-0.1,0.7-0.2,1-0.2c0.4,0,0.7,0.1,1,0.2c0.3,0.1,0.6,0.3,0.9,0.6
					c0.2,0.2,0.4,0.5,0.6,0.9C226.8,190.7,226.9,191.1,226.9,191.5z M226.3,191.5c0-0.3-0.1-0.6-0.2-0.9c-0.1-0.3-0.3-0.5-0.4-0.7
					s-0.4-0.4-0.7-0.5c-0.3-0.1-0.5-0.2-0.8-0.2c-0.3,0-0.6,0.1-0.8,0.2c-0.3,0.1-0.5,0.3-0.7,0.5s-0.3,0.4-0.4,0.7
					c-0.1,0.3-0.2,0.6-0.2,0.9c0,0.3,0,0.6,0.1,0.9c0.1,0.3,0.2,0.5,0.4,0.7c0.2,0.2,0.4,0.4,0.7,0.5c0.3,0.1,0.5,0.2,0.9,0.2
					c0.3,0,0.6-0.1,0.8-0.2c0.3-0.1,0.5-0.3,0.7-0.5s0.3-0.4,0.4-0.7C226.3,192.2,226.3,191.9,226.3,191.5z M223.7,193.1h-0.5v-3
					h1.1c0.4,0,0.6,0.1,0.8,0.2c0.2,0.1,0.3,0.4,0.3,0.7c0,0.3-0.1,0.5-0.2,0.6c-0.2,0.1-0.3,0.2-0.6,0.2l0.8,1.3h-0.6l-0.8-1.3
					h-0.5V193.1z M224.2,191.4c0.1,0,0.2,0,0.3,0c0.1,0,0.2,0,0.2-0.1c0.1,0,0.1-0.1,0.2-0.1c0-0.1,0.1-0.1,0.1-0.3
					c0-0.1,0-0.2-0.1-0.2c0-0.1-0.1-0.1-0.2-0.1c-0.1,0-0.1,0-0.2-0.1c-0.1,0-0.2,0-0.2,0h-0.6v0.9H224.2z"/>
			</g>
		</g>
	</g>
</g>
</svg>
