<?xml version="1.0" encoding="utf-8"?>
<!-- Generator: Adobe Illustrator 22.0.0, SVG Export Plug-In . SVG Version: 6.00 Build 0)  -->
<svg version="1.1" id="Layer_1" xmlns="http://www.w3.org/2000/svg" xmlns:xlink="http://www.w3.org/1999/xlink" x="0px" y="0px"
	 viewBox="0 0 391 202" style="enable-background:new 0 0 391 202;" xml:space="preserve">
<style type="text/css">
	.st0{fill:#2BABE2;}
	.st1{fill:#B2D236;}
	.st2{fill:#1183C6;}
</style>
<g>
	<path id="XMLID_13_" class="st0" d="M85.4,125.2l-0.7-1.1l-1.5-2.1c-5.6-7.8-11.5-14.6-17.7-20.3c-4-3.6-7.5-6-10.6-7.1
		c9.5-0.1,17.9,0.7,25.4,2.4c3,0.7,5.9,1.4,8.4,2.3l2.2,0.8c0,1.9,0,3.7-0.2,5.6c-0.3,3.4-1,6.6-2,9.6
		C87.8,118.2,86.7,121.5,85.4,125.2"/>
	<path id="XMLID_12_" class="st0" d="M50.1,57.4l-0.5,1.1l-0.8,1.8c-4.2,9-7.2,17.8-9.1,26.3c-0.7,3.3-1.2,6.3-1.5,9.2L38,99.1
		c-4.3-8-7.6-15.6-9.9-22.8c-1.1-3.4-1.9-6.6-2.5-9.6l-0.3-1.9C32.6,60.2,40.8,57.8,50.1,57.4"/>
	<path id="XMLID_11_" class="st0" d="M18.4,133c-3.4-2.9-6.7-6.5-9.9-10.8l1.3-0.1l2.2-0.2c10-0.9,19.1-2.7,27.4-5.4
		c5.1-1.7,9.1-3.5,12-5.5c-5,8.2-10.1,15.1-15.2,20.8c-2.3,2.5-4.5,4.7-6.7,6.6l-1.8,1.5C25,138.2,21.9,135.9,18.4,133"/>
	<path id="XMLID_10_" class="st1" d="M80,72.9l1.1,1.2c5.1,6.2,8.7,13.4,10.7,21.6l-1.3-0.4l-2.3-0.6C78.9,92.3,70,91,61.5,90.7
		c-5.4-0.2-9.8,0.1-13.2,1C55.9,85.7,63,81,69.8,77.5c2.9-1.5,5.6-2.8,8.2-3.8C78.7,73.4,79.4,73.2,80,72.9"/>
	<path id="XMLID_9_" class="st1" d="M21.1,66.2l0.3,1.3l0.5,1.9c2.6,9.7,6,18.5,10.1,26.2c1.6,3,3.2,5.7,4.8,8l1.9,2.6
		c-8.4-3.3-15.8-7-22.3-11.1c-3.1-2-5.8-3.9-8.1-5.9l-1.5-1.3C8,85,9.8,81.6,12.1,77.7C14.3,74.1,17.3,70.2,21.1,66.2"/>
	<path id="XMLID_8_" class="st1" d="M57,143.8c-3.2,0.6-7.1,0.8-11.7,0.8c-4.4,0-9.2-0.7-14.4-1.9l1.1-1l1.7-1.7
		c7-7,12.7-14.1,17.3-21.4c2.9-4.6,4.8-8.7,5.6-12.3c1.5,9.8,2,18.4,1.6,26.1c-0.1,3.2-0.4,6.2-0.8,8.9L57,143.8L57,143.8"/>
	<path id="XMLID_7_" class="st2" d="M78,69l-1.3,0.6l-1.9,0.9c-8.9,4.2-16.7,8.9-23.5,14.2c-2.7,2.1-5,4.1-7,6.1l-2.5,2.8
		c2-9.1,4.5-17.2,7.4-24.3c1.3-3.1,2.7-6,4.1-8.5l1-1.8C63,60.2,70.9,63.5,78,69"/>
	<path id="XMLID_6_" class="st2" d="M4.7,103L4.6,91.8l1.1,0.7l1.7,1.2c8.3,5.8,16.5,10.4,24.7,13.7c5,2,9.1,3.2,12.2,3.6
		c-8.8,3-16.9,5-24.5,6c-3.5,0.5-6.8,0.7-9.8,0.8l-2.1,0l-2.1-7.9l-0.6-3.3C4.9,105.3,4.8,104.2,4.7,103"/>
	<path id="XMLID_5_" class="st2" d="M61.5,143.9l0.1-1.3l0.2-2.5c0.8-9.7,0.6-18.7-0.5-27.1c-0.7-5.4-1.9-9.6-3.6-12.7
		c7.3,6.3,13.3,12.5,18,18.6c1.9,2.5,3.6,4.8,5,7.1L82,128c-1.9,2.5-4.2,4.8-6.8,6.9C71,138.3,66.4,141.3,61.5,143.9"/>
	<g>
		<path class="st2" d="M378.4,120.5L378.4,120.5l6.1-16.7h-13.4l-17.7-40.7h-13.8L323.3,101c0,0,0-0.1,0-0.1c0-21-17-38-38-38
			c-20.2,0-36.8,15.6-38,35.5c0,0-0.1,1.7-0.1,3c0.2,5.3,1.5,13,6.5,20.5c0,0,0,0,0,0c6.8,10.2,18.4,17,31.6,17
			c10.1,0,19.3-4,26.1-10.4l-4.5,10.4h17.9l21.2-55.1l8.1,20.1l-6.2,16.6h12.9l7.5,18.4h18.2L378.4,120.5z M285.3,123.9
			c-12.7,0-23-10.3-23-23c0-12.7,10.3-23,23-23c12.7,0,23,10.3,23,23C308.3,113.6,298,123.9,285.3,123.9"/>
		<path class="st2" d="M244.6,106.2c-2.1,12.3-13.6,17.7-25,17.7c-12.7,0-23-10.3-23-23c0-12.7,10.3-23,23-23c0,0,10-0.5,17.6,6
			c1.8-4.5,4.5-9,7.3-12.6c-6.6-5.6-15.6-8.4-25-8.4c-16.8,0-31,10.9-36,25.9c-5-15.1-19.2-25.9-36-25.9c-21,0-38,17-38,38
			c0,21,17,38,38,38c16.8,0,31-10.9,36-25.9c5,15.1,19.2,25.9,36,25.9c12.5,0,23.6-7,30.5-16.5C247.2,117.6,245.3,112.1,244.6,106.2
			z M147.6,123.9c-12.7,0-23-10.3-23-23c0-12.7,10.3-23,23-23c12.7,0,23,10.3,23,23C170.6,113.6,160.3,123.9,147.6,123.9z"/>
	</g>
</g>
</svg>
