<?xml version="1.0" encoding="utf-8"?>
<!-- Generator: Adobe Illustrator 22.0.0, SVG Export Plug-In . SVG Version: 6.00 Build 0)  -->
<svg version="1.1" id="Layer_1" xmlns="http://www.w3.org/2000/svg" xmlns:xlink="http://www.w3.org/1999/xlink" x="0px" y="0px"
	 viewBox="0 0 1033.4 768" style="enable-background:new 0 0 1033.4 768;" xml:space="preserve">
<style type="text/css">
	.st0{fill:#58585A;}
	.st1{fill:#FFFFFF;}
</style>
<g>
	<g>
		<path class="st0" d="M979.8,253.6l-10.7-63.9c-3.4-20.6-11.6-37.3-17.6-37.3c-6.4,0-11.6,17.2-11.6,37.7v16.7
			c0,20.6-17.2,37.7-37.7,37.7h-16.7c-1.3,0-2.6,0-3.4,0v45.9c1.3,0,2.6,0,3.4,0h63C969.1,290.5,983.2,273.8,979.8,253.6"/>
		<path class="st0" d="M829.3,199.6c21,0,37.7,16.7,38.6,38.2v196.4c0,20.6-17.2,37.7-37.7,37.7H728.6c-20.6,0-37.7-17.2-37.7-37.7
			V357c-9,6.9-15,17.6-15,30v64.7c0,20.6,17.2,37.7,37.7,37.7h66v100.3c0,12.9-10.3,23.2-23.2,23.2H632.1
			c-12.9,0-23.2-10.3-23.2-23.2v-93.5c0-12.9-10.3-23.2-23.2-23.2H275.3c-12.9,0-23.2,10.3-23.2,23.2v93.5
			c0,12.9-10.3,23.2-23.2,23.2H104.7c-12.9,0-23.2-10.3-23.2-23.2V321.4l-56.2,44.2c-2.6,1.7-6,1.7-8.1-0.9L1.3,345.8
			c-1.7-2.1-1.7-4.7-0.4-6.9l82.3-125.6c3.9-8.1,11.6-13.7,21-13.7h438.2c14.1,0,24.9,12.9,22.7,27l-9,53.6
			c-2.1,14.1,8.6,27,22.7,27h87.9c11.6,0,20.6-8.1,22.7-18.9c-5.6,1.7-11.6,2.6-18,2.6h-62.6c-21,0-35.2-16.7-31.7-37.3l10.7-63.9
			c3.4-20.6,11.1-37.3,17.6-37.3s11.6,17.2,11.6,37.7v9.9L829.3,199.6z"/>
	</g>
	<g>
		<path class="st0" d="M986.7,176.5c0-16.7,12.4-24,24-24s24,7.3,24,24c0,16.3-12.4,23.6-24,23.6C999.1,200,986.7,192.8,986.7,176.5
			z M1029.1,176.5c0-13.3-8.6-18.9-18-18.9s-18.4,5.6-18.4,18.9c0,12.9,9,18.9,18.4,18.9C1020.6,194.9,1029.1,189.3,1029.1,176.5z
			 M1003,164.5h8.6c4.3,0,8.6,1.3,8.6,7.3c0,3.4-2.6,5.6-5.6,6.4l5.6,9.9h-5.1l-5.1-9.4h-2.1v9.4h-4.7v-23.6H1003z M1011.5,175.2
			c2.1,0,3.9-1.3,3.9-3.4c0-2.6-2.1-3-3.9-3h-4.3v6.4H1011.5z"/>
	</g>
</g>
<g>
	<path class="st1" d="M263.6,237.5c0,0-35.1,8.5-43.9,10.6c3.3-15,7.6-34.3,7.6-34.3l-22.5-2.1c0,0-12.2,17-21.3,29.7
		c-8.3-8-18.6-17.9-18.6-17.9l-18.4,13c0,0,2.4,15.1,4.3,27.1c-13,2.7-29.7,6-29.7,6l-7.4,21.1c0,0,14.3,5.4,25.8,9.7
		c-10.3,13.4-24.5,31.8-24.5,31.8l10.6,20.5c0,0,19.6-12.5,34.4-22c1.1,9.1,5.4,46.3,5.4,46.3l29.7,0c0,0,7.2-40.2,9-50.2
		c8.8,3.8,45.7,19.8,45.7,19.8l19.4-28.8c0,0-29.5-25.6-36.5-31.7c17.6-10.4,42.4-25,42.4-25L263.6,237.5z M250.9,256.2L204,284.6
		l37.6,36.2c-9.1-3.4-50-18.9-50-18.9l-11.2,54.5c-1.4-9.3-8-51.8-8-51.8L132,331c9.9-13,30.1-39.5,30.1-39.5l-33.7-10.9
		c5.8-1,38.6-6.8,38.6-6.8l-7-34.9c3.4,3.6,22.9,24.4,22.9,24.4l26.8-37.7c-1.6,6.4-10.3,41.9-10.3,41.9L250.9,256.2z"/>
	<path class="st1" d="M169.5,285.8c-0.4,7.2,5.1,12.2,12.5,11.2c7.5-1.1,13.8-8.3,13.8-15.7c0-7.2-6-11.8-13.1-10.4
		C175.7,272.2,169.9,278.8,169.5,285.8"/>
</g>
</svg>
