<?xml version="1.0" encoding="utf-8"?>
<!-- Generator: Adobe Illustrator 22.0.0, SVG Export Plug-In . SVG Version: 6.00 Build 0)  -->
<svg version="1.1" id="Layer_1" xmlns="http://www.w3.org/2000/svg" xmlns:xlink="http://www.w3.org/1999/xlink" x="0px" y="0px"
	 viewBox="0 0 749.1 968.8" style="enable-background:new 0 0 749.1 968.8;" xml:space="preserve">
<style type="text/css">
	.st0{fill:#39B7E1;}
	.st1{fill:#FFFFFF;}
</style>
<g>
	<g>
		<g>
			<path class="st0" d="M381.4,774.1c3,0,11.3-21.8,18.5-48.4L468.1,474c7.2-26.6,10.7-48.4,7.7-48.4s-11.3,21.8-18.5,48.4
				l-68.2,251.7C381.9,752.3,378.4,774.1,381.4,774.1z"/>
		</g>
		<g>
			<path class="st0" d="M397.7,774.1c3.3,0,17.3-19.6,31-43.5L578.8,469c13.7-23.9,22.2-43.5,18.9-43.5s-17.3,19.6-31,43.5
				L416.6,730.6C402.9,754.5,394.4,774.1,397.7,774.1z"/>
		</g>
		<g>
			<path class="st0" d="M364,774.1c3,0-0.5-21.8-7.7-48.4L288.1,474c-7.2-26.6-15.5-48.4-18.5-48.4s0.5,21.8,7.7,48.4l68.2,251.7
				C352.7,752.3,361,774.1,364,774.1z"/>
		</g>
		<g>
			<path class="st0" d="M347.2,774.1c3.3,0-5.2-19.6-18.9-43.5L178.2,469.1c-13.7-23.9-27.7-43.5-31-43.5s5.2,19.6,18.9,43.5
				l150.1,261.6C329.9,754.5,343.9,774.1,347.2,774.1z"/>
		</g>
	</g>
</g>
<g>
	<g>
		<path class="st0" d="M594.3,807.5l-4.8-28.7c-1.5-9.2-5.1-16.7-8-16.7c-2.8,0-5.2,7.6-5.2,17v7.5c0,9.3-7.6,17-17,17h-7.5
			c-0.5,0-1.1,0-1.6,0v20.6c0.5,0,1.1,0.1,1.6,0.1H580C589.5,824.2,595.9,816.7,594.3,807.5z"/>
		<path class="st0" d="M543.7,804.8c-5.2,1.8-8.7,5.2-8.7,9s3.5,7.2,8.7,9V804.8z"/>
	</g>
</g>
<path class="st0" d="M619.6,153.9c-14.8,0-29.1,2.5-42.4,7.1C569.6,70.8,494,0,401.9,0c-71.5,0-133,42.6-160.5,103.9
	c-12.5-4.6-26.1-7.1-40.2-7.1c-64.9,0-117.5,52.6-117.5,117.5c0,15.3,3,29.9,8.3,43.3c-4.5-0.8-9-1.3-13.7-1.3
	C35,256.3,0,291.4,0,334.6s35,78.2,78.2,78.2h541.4c71.5,0,129.5-58,129.5-129.5C749.1,211.8,691.1,153.9,619.6,153.9z"/>
<path class="st0" d="M526.7,783.2H481c-0.4,0-0.7,0-1.1,0.1H433c-0.6,0-1.1,0.1-1.6,0.1V779c0-9.3-2.3-17-5.2-17
	c-2.8,0-6.4,7.5-8,16.7l-4.8,28.7c-1.5,9.2,4.8,16.7,14.2,16.7h28.2c2.9,0,5.6-0.5,8-1.2c-0.9,4.8-5.1,8.4-10.2,8.4h-39.5
	c-6.4,0-11.3-5.7-10.2-12.1l4-24c1.1-6.3-3.8-12.1-10.2-12.1H200.8c-4.2,0-7.8,2.5-9.4,6.1l-37.1,56.4c-0.6,1-0.6,2.2,0.2,3.1
	l7.2,8.5c0.9,1.1,2.5,1.2,3.6,0.4l25.2-19.9v120.6c0,5.7,4.6,10.4,10.4,10.4h55.9c5.7,0,10.4-4.6,10.4-10.4v-42
	c0-5.7,4.6-10.4,10.4-10.4h139.5c5.7,0,10.4,4.6,10.4,10.4v42c0,5.7,4.6,10.4,10.4,10.4h55.9c5.7,0,10.4-4.6,10.4-10.4v-45.1h-29.7
	c-9.3,0-17-7.6-17-17v-29c0-5.5,2.7-10.4,6.8-13.5v34.7c0,9.3,7.6,17,17,17H527c9.3,0,17-7.6,17-17v-88.2
	C543.7,790.8,536,783.2,526.7,783.2z"/>
<g>
	<path class="st1" d="M289.1,805.8c0,0-17.6,4.3-22,5.3c1.7-7.5,3.8-17.2,3.8-17.2l-11.3-1.1c0,0-6.1,8.5-10.7,14.9
		c-4.2-4-9.3-8.9-9.3-8.9l-9.2,6.5c0,0,1.2,7.5,2.2,13.6c-6.5,1.3-14.9,3-14.9,3l-3.7,10.6c0,0,7.2,2.7,12.9,4.9
		c-5.2,6.7-12.2,15.9-12.2,15.9l5.3,10.2c0,0,9.8-6.3,17.2-11c0.5,4.5,2.7,23.2,2.7,23.2l14.9,0c0,0,3.6-20.1,4.5-25.2
		c4.4,1.9,22.9,9.9,22.9,9.9l9.7-14.4c0,0-14.8-12.8-18.3-15.9c8.8-5.2,21.2-12.5,21.2-12.5L289.1,805.8z M282.8,815.2l-23.5,14.2
		l18.8,18.1c-4.5-1.7-25-9.5-25-9.5l-5.6,27.3c-0.7-4.6-4-26-4-26l-20.2,13.3c4.9-6.5,15.1-19.8,15.1-19.8l-16.9-5.5
		c2.9-0.5,19.3-3.4,19.3-3.4l-3.5-17.5c1.7,1.8,11.5,12.2,11.5,12.2l13.4-18.9c-0.8,3.2-5.2,21-5.2,21L282.8,815.2z"/>
	<path class="st1" d="M242,830c-0.2,3.6,2.6,6.1,6.2,5.6c3.8-0.6,6.9-4.1,6.9-7.9c0-3.6-3-5.9-6.6-5.2
		C245.1,823.2,242.2,826.5,242,830"/>
</g>
</svg>
