<?xml version="1.0" encoding="utf-8"?>
<!-- Generator: Adobe Illustrator 22.0.0, SVG Export Plug-In . SVG Version: 6.00 Build 0)  -->
<svg version="1.1" id="Layer_1" xmlns="http://www.w3.org/2000/svg" xmlns:xlink="http://www.w3.org/1999/xlink" x="0px" y="0px"
	 viewBox="0 0 70.1 32.9" style="enable-background:new 0 0 70.1 32.9;" xml:space="preserve">
<style type="text/css">
	.st0{fill:#0876A9;}
	.st1{fill:#FFFFFF;}
</style>
<g>
	<g>
		<path class="st0" d="M65.7,7.9L65,3.7c-0.2-1.4-0.8-2.5-1.2-2.5c-0.4,0-0.8,1.1-0.8,2.5v1.1c0,1.4-1.1,2.5-2.5,2.5h-1.1
			c-0.1,0-0.2,0-0.2,0v3c0.1,0,0.2,0,0.2,0h4.2C65,10.3,65.9,9.2,65.7,7.9"/>
		<path class="st0" d="M55.7,4.3H49c-0.1,0-0.1,0-0.2,0h-6.9c-0.1,0-0.2,0-0.2,0V3.7c0-1.4-0.3-2.5-0.8-2.5S40,2.3,39.7,3.7L39,7.9
			c-0.2,1.4,0.7,2.5,2.1,2.5h4.1c0.4,0,0.8-0.1,1.2-0.2c-0.1,0.7-0.7,1.2-1.5,1.2h-5.8c-0.9,0-1.6-0.9-1.5-1.8l0.6-3.5
			c0.1-0.9-0.6-1.8-1.5-1.8h-29c-0.6,0-1.1,0.4-1.4,0.9l-5.5,8.3c-0.1,0.1-0.1,0.3,0,0.5l1.1,1.2c0.1,0.2,0.4,0.2,0.5,0.1l3.7-2.9
			v17.8c0,0.9,0.7,1.5,1.5,1.5H16c0.9,0,1.5-0.7,1.5-1.5V24c0-0.9,0.7-1.5,1.5-1.5h20.6c0.9,0,1.5,0.7,1.5,1.5v6.2
			c0,0.9,0.7,1.5,1.5,1.5h8.2c0.9,0,1.5-0.7,1.5-1.5v-6.6H48c-1.4,0-2.5-1.1-2.5-2.5v-4.3c0-0.8,0.4-1.5,1-2v5.1
			c0,1.4,1.1,2.5,2.5,2.5h6.7c1.4,0,2.5-1.1,2.5-2.5v-13C58.2,5.4,57.1,4.3,55.7,4.3"/>
	</g>
	<g>
		<path class="st0" d="M66.1,2.8c0-1.1,0.8-1.6,1.6-1.6c0.8,0,1.6,0.5,1.6,1.6s-0.8,1.6-1.6,1.6C67,4.4,66.1,3.9,66.1,2.8z
			 M68.9,2.8c0-0.9-0.6-1.2-1.2-1.2S66.5,2,66.5,2.8c0,0.9,0.6,1.2,1.2,1.2C68.4,4,68.9,3.6,68.9,2.8z M67.2,2h0.6
			c0.3,0,0.6,0.1,0.6,0.5c0,0.2-0.2,0.4-0.4,0.4l0.4,0.7H68L67.7,3h-0.1v0.6h-0.3L67.2,2L67.2,2z M67.8,2.7c0.1,0,0.3-0.1,0.3-0.2
			c0-0.2-0.1-0.2-0.3-0.2h-0.3v0.4H67.8z"/>
	</g>
</g>
<g>
	<path class="st1" d="M19.9,7.7c0,0-2.6,0.6-3.3,0.8c0.2-1.1,0.6-2.6,0.6-2.6l-1.7-0.2c0,0-0.9,1.3-1.6,2.2
		c-0.6-0.6-1.4-1.3-1.4-1.3l-1.4,1c0,0,0.2,1.1,0.3,2c-1,0.2-2.2,0.5-2.2,0.5l-0.6,1.6c0,0,1.1,0.4,1.9,0.7c-0.8,1-1.8,2.4-1.8,2.4
		l0.8,1.5c0,0,1.5-0.9,2.6-1.7c0.1,0.7,0.4,3.5,0.4,3.5l2.2,0c0,0,0.5-3,0.7-3.8c0.7,0.3,3.4,1.5,3.4,1.5l1.5-2.2
		c0,0-2.2-1.9-2.7-2.4c1.3-0.8,3.2-1.9,3.2-1.9L19.9,7.7z M18.9,9.1l-3.5,2.1l2.8,2.7c-0.7-0.3-3.8-1.4-3.8-1.4l-0.8,4.1
		c-0.1-0.7-0.6-3.9-0.6-3.9l-3,2c0.7-1,2.3-3,2.3-3l-2.5-0.8c0.4-0.1,2.9-0.5,2.9-0.5l-0.5-2.6c0.3,0.3,1.7,1.8,1.7,1.8l2-2.8
		C15.7,7.3,15,9.9,15,9.9L18.9,9.1z"/>
	<path class="st1" d="M12.8,11.3c0,0.5,0.4,0.9,0.9,0.8c0.6-0.1,1-0.6,1-1.2c0-0.5-0.4-0.9-1-0.8C13.3,10.3,12.8,10.8,12.8,11.3"/>
</g>
</svg>
