<?xml version="1.0" encoding="utf-8"?>
<!-- Generator: Adobe Illustrator 22.0.0, SVG Export Plug-In . SVG Version: 6.00 Build 0)  -->
<svg version="1.1" id="Layer_1" xmlns="http://www.w3.org/2000/svg" xmlns:xlink="http://www.w3.org/1999/xlink" x="0px" y="0px"
	 viewBox="0 0 44 21" style="enable-background:new 0 0 44 21;" xml:space="preserve">
<style type="text/css">
	.st0{fill:#0475A8;}
	.st1{fill:#FFFFFF;}
</style>
<g>
	<g>
		<path class="st0" d="M41.5,5L41,2.3c-0.1-0.9-0.5-1.6-0.7-1.6c-0.3,0-0.5,0.7-0.5,1.6V3c0,0.9-0.7,1.6-1.6,1.6h-0.7
			c-0.1,0-0.1,0-0.1,0v2c0.1,0,0.1,0,0.1,0h2.7C41,6.6,41.6,5.9,41.5,5"/>
		<path class="st0" d="M35.1,2.7h-4.3h-0.1h-4.4c-0.1,0-0.1,0-0.1,0V2.3c0-0.9-0.2-1.6-0.5-1.6S25,1.4,24.9,2.3L24.4,5
			c-0.1,0.9,0.5,1.6,1.3,1.6h2.7c0.3,0,0.5,0,0.8-0.1c-0.1,0.5-0.5,0.8-1,0.8h-3.7c-0.6,0-1.1-0.5-1-1.1l0.4-2.3
			c0.1-0.6-0.4-1.1-1-1.1H4.4C4,2.7,3.7,3,3.5,3.3L0,8.6c0,0.1,0,0.2,0.1,0.3l0.7,0.8c0.1,0.1,0.2,0.1,0.3,0l2.4-1.9v11.3
			c0,0.5,0.4,1,1,1h5.3c0.5,0,1-0.4,1-1v-4c0-0.5,0.4-1,1-1h13.1c0.5,0,1,0.4,1,1v4c0,0.5,0.4,1,1,1h5.3c0.5,0,1-0.4,1-1V15h-2.8
			c-0.9,0-1.6-0.7-1.6-1.6v-2.8c0-0.5,0.3-1,0.6-1.3v3.3c0,0.9,0.7,1.6,1.6,1.6h4.3c0.9,0,1.6-0.7,1.6-1.6V4.3
			C36.7,3.4,36,2.7,35.1,2.7"/>
	</g>
	<g>
		<path class="st0" d="M41.8,1.7c0-0.7,0.5-1,1-1c0.5,0,1,0.3,1,1s-0.5,1-1,1C42.3,2.7,41.8,2.4,41.8,1.7z M43.6,1.7
			c0-0.6-0.4-0.8-0.8-0.8c-0.4,0-0.8,0.2-0.8,0.8c0,0.5,0.4,0.8,0.8,0.8S43.6,2.3,43.6,1.7z M42.5,1.2h0.3c0.2,0,0.4,0.1,0.4,0.3
			c0,0.1-0.1,0.2-0.2,0.3l0.2,0.4H43l-0.2-0.4h-0.1v0.4h-0.2V1.2L42.5,1.2z M42.8,1.7c0.1,0,0.2-0.1,0.2-0.1c0-0.1-0.1-0.1-0.2-0.1
			h-0.2v0.3L42.8,1.7L42.8,1.7z"/>
	</g>
</g>
<g>
	<path class="st1" d="M12.2,4.9c0,0-1.7,0.4-2.1,0.5c0.2-0.7,0.4-1.6,0.4-1.6L9.4,3.6c0,0-0.6,0.8-1,1.4C8,4.7,7.5,4.2,7.5,4.2
		L6.6,4.8c0,0,0.1,0.7,0.2,1.3C6.2,6.2,5.4,6.4,5.4,6.4L5,7.4c0,0,0.7,0.3,1.2,0.5C5.8,8.5,5.1,9.4,5.1,9.4l0.5,1
		c0,0,0.9-0.6,1.7-1.1c0.1,0.4,0.3,2.2,0.3,2.2l1.4,0c0,0,0.3-1.9,0.4-2.4c0.4,0.2,2.2,1,2.2,1l0.9-1.4c0,0-1.4-1.2-1.8-1.5
		c0.8-0.5,2-1.2,2-1.2L12.2,4.9z M11.6,5.8L9.4,7.1l1.8,1.7c-0.4-0.2-2.4-0.9-2.4-0.9l-0.5,2.6c-0.1-0.4-0.4-2.5-0.4-2.5L5.9,9.3
		c0.5-0.6,1.4-1.9,1.4-1.9L5.7,6.9c0.3,0,1.9-0.3,1.9-0.3L7.2,4.9c0.2,0.2,1.1,1.2,1.1,1.2l1.3-1.8c-0.1,0.3-0.5,2-0.5,2L11.6,5.8z"
		/>
	<path class="st1" d="M7.7,7.2c0,0.3,0.2,0.6,0.6,0.5C8.7,7.7,9,7.3,9,7c0-0.3-0.3-0.6-0.6-0.5C8,6.5,7.7,6.8,7.7,7.2"/>
</g>
</svg>
