<?xml version="1.0" encoding="utf-8"?>
<!-- Generator: Adobe Illustrator 22.0.0, SVG Export Plug-In . SVG Version: 6.00 Build 0)  -->
<svg version="1.1" id="Layer_1" xmlns="http://www.w3.org/2000/svg" xmlns:xlink="http://www.w3.org/1999/xlink" x="0px" y="0px"
	 viewBox="0 0 223.1 40.7" style="enable-background:new 0 0 223.1 40.7;" xml:space="preserve">
<style type="text/css">
	.st0{fill:#0075A8;}
	.st1{fill:#59595B;}
	.st2{fill:#FFFFFF;}
</style>
<title>container-cloud-logo</title>
<path class="st0" d="M83.8,9.4L82.9,4c-0.3-1.8-0.9-3.2-1.5-3.2s-1,1.5-1,3.2v1.4c0,1.8-1.4,3.2-3.2,3.2h-1.7v3.9h5.7
	c1.5,0.1,2.7-1.1,2.8-2.5C83.9,9.9,83.9,9.6,83.8,9.4"/>
<path class="st0" d="M71,4.8H53.1h-0.3V4c0-1.8-0.4-3.2-1-3.2S50.6,2.2,50.3,4l-0.9,5.4c-0.3,1.4,0.6,2.8,2.1,3.1
	c0.2,0,0.4,0.1,0.6,0.1h5.4c0.5,0,1-0.1,1.5-0.2c-0.2,0.9-1,1.6-1.9,1.6h-7.5c-1.1,0-2-0.9-2-2c0-0.1,0-0.2,0-0.3l0.8-4.6
	C48.5,6,47.8,5,46.7,4.9c-0.1,0-0.2,0-0.3,0H8.9C8.2,4.8,7.5,5.3,7.1,6L0.1,16.7c-0.1,0.2-0.1,0.4,0,0.6l1.4,1.6
	c0.2,0.2,0.5,0.2,0.7,0.1L7,15.2v23c0,1.1,0.9,2,2,2h10.6c1.1,0,2-0.9,2-2v-8c0-1.1,0.9-2,2-2h26.5c1.1,0,2,0.9,2,2v8
	c0,1.1,0.9,2,2,2h10.6c1.1,0,2-0.9,2-2v-8.6H61c-1.8,0-3.2-1.4-3.2-3.2v-5.6c0-1,0.4-2,1.2-2.6v6.6c0,1.8,1.4,3.2,3.2,3.2H71
	c1.8,0,3.2-1.4,3.2-3.2V8.1C74.2,6.3,72.8,4.8,71,4.8"/>
<path class="st1" d="M89.9,0.4H99c4.3,0,7.2,2.1,7.2,6.2c0,2.8-1.8,5.2-4.4,6c0.6,0.6,1.2,1.3,1.5,2.1c0.9,1.9,1.5,3.9,3.5,3.9
	c0.3,0,0.6-0.1,0.9-0.2l-0.4,3.9c-0.7,0.2-1.5,0.3-2.2,0.3c-2.6,0-4.1-1-5.7-4.5c-0.7-1.6-1.6-4.3-2.8-4.3h-1.3v8.7h-5.5V0.4z
	 M95.3,4.4v5.4h2c1.6,0,3.4-0.5,3.4-2.8c0-1.9-1.2-2.6-2.8-2.6L95.3,4.4L95.3,4.4z"/>
<path class="st1" d="M113.6,0.4h5.5l7.5,22.1H121l-1.4-4.2h-7.4l-1.3,4.2h-4.8L113.6,0.4z M113.6,14.2h4.7l-1.5-4.7
	c-0.4-1.2-0.6-2.5-0.8-3.8h-0.1c-0.2,1.3-0.5,2.5-0.8,3.8L113.6,14.2z"/>
<path class="st1" d="M126.8,0.4h5.9l5.8,11c0.5,0.9,1.1,2.6,1.7,3.9h0.1c-0.1-1.3-0.2-3.1-0.2-4.3V0.4h4.5v22.1h-5.7l-6-10.9
	c-0.6-1.2-1.1-2.4-1.6-3.6H131c0.1,1.2,0.3,2.7,0.3,3.9v10.6h-4.5V0.4z"/>
<path class="st1" d="M145.7,11.3c0-8,4-11.3,10.1-11.3c6.4,0,9,3.5,8.3,8.3L159,8.8c0.6-3.5-0.8-4.9-3.3-4.9s-4.3,1.8-4.3,7.5
	c0,6,2.1,7.6,4.5,7.6c1.9,0.2,3.6-1.2,3.8-3.1c0-0.4,0-0.8-0.1-1.2l4.8,0.5c0.4,4.5-2.9,7.8-8.8,7.8S145.7,19.3,145.7,11.3"/>
<polygon class="st1" points="165.4,0.4 170.9,0.4 170.9,8.7 177.6,8.7 177.6,0.4 183,0.4 183,22.5 177.6,22.5 177.6,13.1 
	170.9,13.1 170.9,22.5 165.4,22.5 "/>
<polygon class="st1" points="185.2,0.4 199.8,0.4 199.8,4.4 190.7,4.4 190.7,9.2 198.4,9.2 198.4,13.2 190.7,13.2 190.7,18.4 
	200.2,18.4 200.2,22.5 185.2,22.5 "/>
<path class="st1" d="M201.2,0.4h9.1c4.3,0,7.2,2.1,7.2,6.2c0,2.8-1.8,5.2-4.4,6c0.6,0.6,1.2,1.3,1.5,2.1c0.9,1.9,1.5,3.9,3.5,3.9
	c0.3,0,0.6-0.1,0.9-0.2l-0.4,3.9c-0.7,0.2-1.5,0.3-2.2,0.3c-2.6,0-4.1-1-5.7-4.5c-0.6-1.6-1.6-4.3-2.8-4.3h-1.2v8.7h-5.5L201.2,0.4
	L201.2,0.4z M206.7,4.4v5.4h2c1.6,0,3.4-0.5,3.4-2.8c0-1.9-1.2-2.6-2.8-2.6L206.7,4.4L206.7,4.4z"/>
<path class="st1" d="M219.5,1.8c0-1,0.8-1.8,1.8-1.8c1,0,1.8,0.8,1.8,1.8c0,0,0,0,0,0c0,1-0.8,1.8-1.8,1.8
	C220.3,3.6,219.5,2.8,219.5,1.8z M222.7,1.8c0.1-0.7-0.4-1.3-1.1-1.4c-0.1,0-0.1,0-0.2,0c-0.7,0-1.3,0.6-1.3,1.3c0,0,0,0.1,0,0.1
	c-0.1,0.7,0.5,1.3,1.2,1.4c0.1,0,0.1,0,0.2,0c0.7,0,1.3-0.5,1.3-1.2C222.7,1.9,222.7,1.8,222.7,1.8L222.7,1.8z M220.7,0.9h0.6
	c0.3-0.1,0.6,0.1,0.6,0.4c0,0,0,0.1,0,0.1c0,0.2-0.2,0.4-0.4,0.5l0.4,0.7h-0.4l-0.4-0.7h-0.1v0.7h-0.3L220.7,0.9L220.7,0.9z
	 M221.4,1.7c0.1,0,0.3-0.1,0.3-0.2c0,0,0,0,0,0c0-0.1-0.1-0.2-0.2-0.2c0,0,0,0-0.1,0h-0.3v0.5L221.4,1.7L221.4,1.7z"/>
<path class="st1" d="M93,40c-0.8-0.4-1.5-1.1-2-1.9c-0.9-1.8-0.9-3.9,0-5.8c0.5-0.8,1.2-1.5,2-1.9c0.9-0.5,1.9-0.7,2.9-0.7
	c1.3,0,2.6,0.3,3.6,1.1v1.5c-1-0.8-2.2-1.2-3.5-1.2c-0.7,0-1.5,0.2-2.2,0.5c-0.6,0.3-1.1,0.8-1.5,1.4c-0.7,1.4-0.7,3,0,4.3
	c0.3,0.6,0.9,1.1,1.5,1.4c0.7,0.3,1.4,0.5,2.1,0.5c0.7,0,1.4-0.1,2-0.3c0.6-0.2,1.2-0.5,1.6-0.9v1.5c-1.1,0.8-2.4,1.2-3.8,1.1
	C94.9,40.7,93.9,40.5,93,40z"/>
<path class="st1" d="M103.3,40.2c-0.6-0.3-1.1-0.7-1.4-1.3c-0.4-0.6-0.5-1.3-0.5-2c0-0.7,0.2-1.4,0.5-2c0.3-0.6,0.8-1,1.4-1.3
	c1.4-0.6,2.9-0.6,4.3,0c0.6,0.3,1.1,0.8,1.4,1.3c0.7,1.3,0.7,2.8,0,4.1c-0.3,0.6-0.8,1-1.4,1.3C106.3,40.9,104.7,40.9,103.3,40.2z
	 M107.3,38.8c0.9-1.1,0.9-2.7,0-3.8c-1.1-0.9-2.7-0.9-3.7,0c-0.9,1.1-0.9,2.7,0,3.8C104.7,39.7,106.3,39.7,107.3,38.8z"/>
<path class="st1" d="M112,33.3h1.5v1c0.3-0.4,0.8-0.8,1.2-1c0.5-0.2,1-0.3,1.6-0.3c0.8-0.1,1.6,0.2,2.2,0.8c0.5,0.6,0.7,1.3,0.7,2
	v4.6h-1.5V36c0.1-0.8-0.4-1.6-1.3-1.7c-0.1,0-0.2,0-0.4,0c-0.5,0-0.9,0.1-1.3,0.3c-0.4,0.2-0.8,0.6-1.1,1v4.8H112V33.3L112,33.3z"/>
<path class="st1" d="M122.9,40.1c-0.4-0.5-0.6-1.1-0.6-1.8v-3.8h-1.1v-1.2h1.1v-2.2h1.5v2.2h1.8v1.2h-1.8v3.7c0,0.4,0.1,0.7,0.3,1
	c0.3,0.2,0.6,0.3,1,0.3c0.3,0,0.6-0.1,0.9-0.2v1.2c-0.5,0.1-0.9,0.2-1.4,0.2C124,40.7,123.4,40.5,122.9,40.1z"/>
<path class="st1" d="M128.5,40c-0.5-0.4-0.8-1.1-0.8-1.8c0-0.7,0.2-1.4,0.8-1.8c0.6-0.5,1.4-0.7,2.1-0.7c0.9,0,1.7,0.2,2.5,0.6v-0.4
	c0-0.5-0.2-1-0.5-1.3c-0.5-0.3-1.1-0.5-1.6-0.4c-0.4,0-0.9,0-1.3,0.1c-0.4,0.1-0.8,0.2-1.1,0.3v-1.2c0.4-0.2,0.8-0.3,1.2-0.3
	c0.5-0.1,0.9-0.1,1.4-0.1c1-0.1,1.9,0.2,2.6,0.8c0.6,0.6,0.9,1.4,0.9,2.2v4.5h-1.4v-0.8c-0.3,0.3-0.7,0.6-1.1,0.8
	c-0.5,0.2-1,0.3-1.6,0.3C129.8,40.7,129.1,40.5,128.5,40z M132.2,39.2c0.4-0.2,0.7-0.4,0.9-0.8v-1c-0.6-0.4-1.4-0.6-2.2-0.6
	c-0.5,0-0.9,0.1-1.3,0.3c-0.3,0.2-0.4,0.6-0.4,1c0,0.9,0.6,1.3,1.7,1.3C131.4,39.5,131.8,39.4,132.2,39.2L132.2,39.2z"/>
<path class="st1" d="M137.5,31.6c-0.3-0.3-0.4-0.9,0-1.2c0.2-0.2,0.4-0.3,0.6-0.3c0.2,0,0.5,0.1,0.6,0.2c0.3,0.3,0.3,0.9,0,1.3
	c0,0,0,0,0,0c-0.2,0.2-0.4,0.3-0.6,0.2C137.9,31.9,137.7,31.8,137.5,31.6z M137.4,33.3h1.6v7.2h-1.5L137.4,33.3L137.4,33.3z"/>
<path class="st1" d="M141.8,33.3h1.5v1c0.3-0.4,0.8-0.8,1.2-1c0.5-0.2,1-0.3,1.6-0.3c0.8-0.1,1.6,0.2,2.1,0.8c0.5,0.6,0.7,1.3,0.7,2
	v4.6h-1.5V36c0.1-0.8-0.4-1.6-1.3-1.7c-0.1,0-0.3,0-0.4,0c-0.5,0-0.9,0.1-1.3,0.3c-0.4,0.2-0.8,0.6-1.1,1v4.8h-1.5L141.8,33.3
	L141.8,33.3z"/>
<path class="st1" d="M152.4,39.7c-0.8-0.7-1.2-1.8-1.1-2.8c-0.2-2,1.2-3.7,3.2-3.9c0.2,0,0.5,0,0.7,0c0.7,0,1.5,0.1,2.1,0.5
	c0.6,0.3,1,0.7,1.3,1.3c0.3,0.6,0.5,1.2,0.4,1.9v0.8h-6.3c0,0.6,0.3,1.2,0.9,1.6c0.7,0.4,1.4,0.5,2.1,0.5c0.5,0,0.9,0,1.4-0.1
	c0.4-0.1,0.8-0.2,1.2-0.3v1.2c-0.4,0.2-0.8,0.3-1.3,0.3c-0.5,0.1-1,0.1-1.6,0.1C154.4,40.8,153.3,40.4,152.4,39.7z M157.6,36.4
	c0-0.6-0.2-1.2-0.7-1.6c-0.5-0.4-1.2-0.6-1.8-0.6c-0.6,0-1.3,0.2-1.8,0.6c-0.4,0.4-0.7,1-0.7,1.6H157.6L157.6,36.4z"/>
<path class="st1" d="M161.5,33.3h1.5v1.3c0.3-0.5,0.8-0.8,1.3-1c0.6-0.2,1.3-0.3,1.9-0.3v1.2c-0.7,0-1.4,0.1-2,0.4
	c-0.5,0.2-1,0.7-1.2,1.2v4.5h-1.5V33.3z"/>
<path class="st1" d="M177,40c-0.8-0.4-1.5-1.1-2-1.9c-0.9-1.8-0.9-3.9,0-5.8c0.5-0.8,1.2-1.5,2-1.9c0.9-0.5,1.9-0.7,2.9-0.7
	c1.3,0,2.6,0.3,3.6,1.1v1.5c-1-0.8-2.2-1.2-3.5-1.2c-0.7,0-1.5,0.2-2.1,0.5c-0.6,0.3-1.1,0.8-1.5,1.4c-0.7,1.4-0.7,3,0,4.3
	c0.3,0.6,0.9,1.1,1.5,1.4c0.7,0.3,1.4,0.5,2.1,0.5c0.7,0,1.4-0.1,2-0.3c0.6-0.2,1.2-0.5,1.6-0.9v1.5c-1.1,0.8-2.4,1.2-3.8,1.1
	C178.9,40.7,177.9,40.5,177,40z"/>
<path class="st1" d="M186,29.4h1.5v11.1H186V29.4z"/>
<path class="st1" d="M191.9,40.2c-0.6-0.3-1.1-0.7-1.4-1.3c-0.4-0.6-0.5-1.3-0.5-2c0-0.7,0.2-1.4,0.5-2c0.3-0.6,0.8-1,1.4-1.3
	c1.4-0.6,2.9-0.6,4.3,0c0.6,0.3,1.1,0.8,1.4,1.3c0.7,1.3,0.7,2.8,0,4.1c-0.3,0.6-0.8,1-1.4,1.3C194.8,40.9,193.3,40.9,191.9,40.2z
	 M195.9,38.8c0.9-1.1,0.9-2.7,0-3.8c-1.1-0.9-2.7-0.9-3.7,0c-0.9,1.1-0.9,2.7,0,3.8C193.3,39.7,194.9,39.7,195.9,38.8z"/>
<path class="st1" d="M201.3,39.9c-0.5-0.6-0.8-1.3-0.7-2.1v-4.6h1.5v4.5c-0.1,0.8,0.4,1.6,1.3,1.7c0.1,0,0.3,0,0.4,0
	c1,0,1.9-0.5,2.4-1.4v-4.9h1.5v7.2h-1.5v-1c-0.3,0.4-0.7,0.7-1.2,0.9c-0.5,0.2-1,0.3-1.5,0.3C202.6,40.7,201.8,40.5,201.3,39.9z"/>
<path class="st1" d="M211.9,40.2c-0.6-0.3-1-0.8-1.4-1.3c-0.7-1.3-0.7-2.7,0-4c0.3-0.6,0.8-1,1.4-1.4c0.6-0.3,1.3-0.5,1.9-0.5
	c1.1-0.1,2.2,0.3,3,1.2v-4.8h1.5v11.1h-1.5v-1c-0.4,0.4-0.8,0.8-1.3,1c-0.5,0.2-1.1,0.3-1.7,0.3C213.2,40.8,212.5,40.6,211.9,40.2z
	 M215.8,39c0.5-0.3,0.8-0.8,1-1.3v-1.6c-0.2-0.5-0.5-1-1-1.3c-0.5-0.3-1.1-0.5-1.6-0.5c-0.5,0-0.9,0.1-1.3,0.3
	c-0.4,0.2-0.7,0.5-0.9,0.9c-0.4,0.9-0.4,1.9,0,2.7c0.2,0.4,0.5,0.7,0.9,0.9c0.4,0.2,0.9,0.3,1.3,0.3C214.8,39.5,215.3,39.3,215.8,39
	z"/>
<g>
	<path class="st2" d="M24.1,8.7c0,0-3.2,0.8-4,1c0.3-1.4,0.7-3.2,0.7-3.2l-2.1-0.2c0,0-1.1,1.6-2,2.7C16,8.3,15,7.4,15,7.4l-1.7,1.2
		c0,0,0.2,1.4,0.4,2.5c-1.2,0.2-2.7,0.6-2.7,0.6l-0.7,1.9c0,0,1.3,0.5,2.4,0.9c-0.9,1.2-2.3,2.9-2.3,2.9l1,1.9c0,0,1.8-1.2,3.2-2
		c0.1,0.8,0.5,4.3,0.5,4.3l2.7,0c0,0,0.7-3.7,0.8-4.6c0.8,0.4,4.2,1.8,4.2,1.8l1.8-2.7c0,0-2.7-2.4-3.4-2.9c1.6-1,3.9-2.3,3.9-2.3
		L24.1,8.7z M23,10.4L18.6,13l3.5,3.3c-0.8-0.3-4.6-1.7-4.6-1.7l-1,5c-0.1-0.9-0.7-4.8-0.7-4.8L12,17.3c0.9-1.2,2.8-3.6,2.8-3.6
		l-3.1-1c0.5-0.1,3.6-0.6,3.6-0.6l-0.6-3.2c0.3,0.3,2.1,2.2,2.1,2.2l2.5-3.5c-0.1,0.6-1,3.9-1,3.9L23,10.4z"/>
	<path class="st2" d="M15.5,13.1c0,0.7,0.5,1.1,1.1,1c0.7-0.1,1.3-0.8,1.3-1.4c0-0.7-0.5-1.1-1.2-1C16,11.9,15.5,12.5,15.5,13.1"/>
</g>
</svg>
