<?xml version="1.0" encoding="utf-8"?>
<!-- Generator: Adobe Illustrator 22.0.0, SVG Export Plug-In . SVG Version: 6.00 Build 0)  -->
<svg version="1.1" id="Layer_1" xmlns="http://www.w3.org/2000/svg" xmlns:xlink="http://www.w3.org/1999/xlink" x="0px" y="0px"
	 viewBox="0 0 100 100" style="enable-background:new 0 0 100 100;" xml:space="preserve">
<style type="text/css">
	.st0{fill:#0075A8;}
	.st1{fill:#FFFFFF;}
</style>
<title>provider-local</title>
<path class="st0" d="M89.8,22.7l-0.9-5.5c-0.3-1.8-1-3.2-1.5-3.2s-1,1.5-1,3.2v1.5c0,1.8-1.4,3.2-3.2,3.2h-1.7v3.9h5.7
	c1.4,0.1,2.6-1,2.6-2.4C89.9,23.2,89.8,22.9,89.8,22.7"/>
<path class="st0" d="M76.9,18.1H58.6v-0.9c0-1.8-0.5-3.2-1-3.2s-1.2,1.4-1.5,3.2l-0.9,5.5c-0.3,1.4,0.6,2.9,2.1,3.2
	c0.2,0,0.5,0.1,0.7,0.1h5.4c0.5,0,1-0.1,1.5-0.2c-0.2,0.9-1,1.6-2,1.6h-7.5c-1.1,0-2-0.9-2-2c0-0.1,0-0.2,0-0.3l0.8-4.6
	c0.2-1.1-0.6-2.1-1.7-2.3c-0.1,0-0.2,0-0.3,0H14.5c-0.8,0-1.5,0.4-1.8,1.2L5.6,30c-0.1,0.2-0.1,0.4,0,0.6l1.3,1.6
	c0.2,0.2,0.5,0.2,0.7,0.1l4.8-3.8v23.2c0,1.1,0.9,2,2,2h10.6c1.1,0,2-0.9,2-2v-8c0-1.1,0.9-2,2-2h26.6c1.1,0,2,0.9,2,2v8
	c0,1.1,0.9,2,2,2h10.6c1.1,0,2-0.9,2-2V43h-5.4c-1.8,0-3.2-1.4-3.2-3.2v-5.6c0-1,0.5-2,1.3-2.6v6.7c0,1.8,1.4,3.2,3.2,3.2H77
	c1.8,0,3.2-1.4,3.2-3.2V21.4C80.2,19.6,78.7,18.1,76.9,18.1"/>
<path class="st0" d="M90.4,16.1c0-1.1,0.9-2,2-2c1.1,0,2.1,0.9,2.1,2c0,1.1-0.9,2-2,2c-1.1,0.1-2-0.8-2.1-1.9
	C90.4,16.2,90.4,16.2,90.4,16.1z M94.1,16.1c0.1-0.8-0.5-1.5-1.2-1.6c-0.1,0-0.2,0-0.3,0c-0.8-0.1-1.5,0.6-1.6,1.4
	c0,0.1,0,0.2,0,0.2c0,0.8,0.6,1.6,1.5,1.6c0,0,0.1,0,0.1,0C93.4,17.7,94.1,17,94.1,16.1z M91.7,15.1h0.7c0.4,0,0.7,0.1,0.7,0.6
	c0,0.3-0.2,0.5-0.4,0.5l0.4,0.9h-0.4l-0.4-0.8h-0.2v0.8h-0.4L91.7,15.1L91.7,15.1z M92.5,16c0.2,0,0.4-0.1,0.4-0.3s-0.2-0.3-0.4-0.3
	h-0.4V16L92.5,16z"/>
<path class="st0" d="M33.9,76.1H35V85h5.2v0.9h-6.3L33.9,76.1z"/>
<path class="st0" d="M42.5,85.7c-0.6-0.3-1-0.7-1.3-1.2c-0.6-1.2-0.6-2.6,0-3.8c0.3-0.5,0.8-1,1.3-1.3c1.2-0.6,2.6-0.6,3.8,0
	c0.6,0.3,1,0.7,1.3,1.3c0.3,0.6,0.5,1.2,0.5,1.9c0,0.7-0.1,1.3-0.5,1.9c-0.3,0.5-0.8,1-1.3,1.2C45.1,86.2,43.7,86.2,42.5,85.7
	L42.5,85.7z M46.3,84.5c1-1.1,1-2.8,0-3.9c-1.1-1-2.8-1-3.8,0c-1,1.1-1,2.8,0,3.9C43.6,85.5,45.2,85.5,46.3,84.5z"/>
<path class="st0" d="M51.1,85.7c-0.6-0.3-1-0.7-1.3-1.2c-0.6-1.2-0.6-2.6,0-3.8c0.3-0.5,0.8-1,1.3-1.2c0.6-0.3,1.3-0.4,1.9-0.4
	c0.5,0,0.9,0,1.4,0.1c0.4,0.1,0.7,0.2,1,0.4v0.9c-0.7-0.4-1.5-0.7-2.3-0.6c-0.7,0-1.5,0.2-2,0.7c-1,1.1-1,2.9,0,4
	c0.5,0.5,1.3,0.7,2,0.7c0.4,0,0.9-0.1,1.3-0.2c0.4-0.1,0.8-0.3,1.1-0.5v0.9c-0.3,0.2-0.7,0.4-1.1,0.5c-0.5,0.1-1,0.2-1.5,0.2
	C52.3,86.1,51.7,86,51.1,85.7z"/>
<path class="st0" d="M57.6,85.5c-0.5-0.4-0.7-1-0.7-1.7c0-0.6,0.2-1.3,0.7-1.7c0.6-0.4,1.3-0.6,2-0.6c0.9,0,1.7,0.2,2.5,0.6v-0.5
	c0-0.5-0.2-1-0.5-1.3c-0.5-0.3-1.1-0.5-1.6-0.4c-0.8,0-1.5,0.1-2.2,0.4v-0.9c0.3-0.1,0.7-0.2,1.1-0.3C59.2,79,59.6,79,60,79
	c0.9-0.1,1.7,0.2,2.4,0.7c0.5,0.5,0.8,1.3,0.8,2v4.2h-1V85c-0.7,0.7-1.6,1.1-2.6,1.1C58.8,86.1,58.1,85.9,57.6,85.5z M61.2,84.9
	c0.4-0.2,0.7-0.5,0.9-0.8V83c-0.3-0.2-0.7-0.4-1.1-0.5c-0.4-0.1-0.8-0.2-1.2-0.2c-0.5,0-1,0.1-1.4,0.4C58.1,83,58,83.4,58,83.8
	c0,0.9,0.6,1.4,1.8,1.4C60.3,85.2,60.7,85.1,61.2,84.9z"/>
<path class="st0" d="M65,75.5h1.1v10.3H65V75.5z"/>
<g>
	<path class="st1" d="M30.7,22.4c0,0-3.4,0.8-4.2,1c0.3-1.4,0.7-3.3,0.7-3.3L25,19.9c0,0-1.2,1.6-2.1,2.9c-0.8-0.8-1.8-1.7-1.8-1.7
		l-1.8,1.2c0,0,0.2,1.4,0.4,2.6c-1.3,0.3-2.8,0.6-2.8,0.6l-0.7,2c0,0,1.4,0.5,2.5,0.9c-1,1.3-2.3,3.1-2.3,3.1l1,2
		c0,0,1.9-1.2,3.3-2.1c0.1,0.9,0.5,4.4,0.5,4.4l2.9,0c0,0,0.7-3.9,0.9-4.8c0.8,0.4,4.4,1.9,4.4,1.9l1.9-2.8c0,0-2.8-2.5-3.5-3
		c1.7-1,4.1-2.4,4.1-2.4L30.7,22.4z M29.4,24.2l-4.5,2.7l3.6,3.5c-0.9-0.3-4.8-1.8-4.8-1.8l-1.1,5.2c-0.1-0.9-0.8-5-0.8-5L18,31.4
		c0.9-1.2,2.9-3.8,2.9-3.8l-3.2-1.1c0.6-0.1,3.7-0.7,3.7-0.7l-0.7-3.4c0.3,0.3,2.2,2.3,2.2,2.3l2.6-3.6c-0.2,0.6-1,4-1,4L29.4,24.2z
		"/>
	<path class="st1" d="M21.6,27c0,0.7,0.5,1.2,1.2,1.1c0.7-0.1,1.3-0.8,1.3-1.5c0-0.7-0.6-1.1-1.3-1C22.2,25.7,21.7,26.4,21.6,27"/>
</g>
</svg>
