<?xml version="1.0" encoding="utf-8"?>
<!-- Generator: Adobe Illustrator 22.0.0, SVG Export Plug-In . SVG Version: 6.00 Build 0)  -->
<svg version="1.1" id="Layer_1" xmlns="http://www.w3.org/2000/svg" xmlns:xlink="http://www.w3.org/1999/xlink" x="0px" y="0px"
	 viewBox="0 0 100 100" style="enable-background:new 0 0 100 100;" xml:space="preserve">
<style type="text/css">
	.st0{fill:#0075A8;}
	.st1{fill:#FFFFFF;}
</style>
<g>
	<g>
		<path class="st0" d="M61.9,48.7L55.1,75H54l6.8-26.2L61.9,48.7L61.9,48.7z M71.8,48.7L56.8,75H58l15-26.2L71.8,48.7L71.8,48.7z
			 M42.8,48.7L49.7,75h1.1L44,48.8L42.8,48.7L42.8,48.7z M31.7,48.7l15,26.2h1.2l-15-26.2C32.9,48.7,31.7,48.7,31.7,48.7z M70.4,84
			C70.4,84,70.3,84,70.4,84l2.7,0.1c0.8,0,1.4-0.6,1.4-1.4c0-0.1,0-0.2,0-0.3L74,79.5c-0.2-0.9-0.4-1.7-0.6-1.7
			c-0.3,0-0.4,0.8-0.4,1.7v0.8c0,0.9-1.1,2-2,2h-0.7L70.4,84z M77.1,16.9c-1.4,0-2.9,0.2-4.2,0.7c-0.8-9.7-9.4-16.9-19-16
			C47.5,2.1,42,6.1,39.3,11.9c-6.1-2.2-12.8,0.9-15.1,7c-1,2.7-0.9,5.7,0.1,8.4c-0.5-0.1-0.9-0.1-1.4-0.1c-4.3,0-7.8,3.3-7.8,7.6
			s3.5,7.6,7.8,7.6h54.2c7.2,0,13-5.6,13-12.8S84.2,16.9,77.1,16.9z M69.5,81.6v8.8c0,0.9-0.7,1.8-1.7,1.8h-4.6
			c-0.9,0-1.9-0.9-1.9-1.8v-3.5c0,0.3-0.9,0.8-0.9,1.4v2.9c0,0.9,1.2,1.9,2.1,1.9h3.3v4.3c0,0.6-0.8,1.1-1.4,1.1h-5.6
			c-0.6,0-1.2-0.5-1.2-1.1v-4.2c0-0.6-0.3-1-0.9-1h-14c-0.6,0-1.4,0.5-1.4,1v4.2c0,0.6-0.1,1.1-0.6,1.1h-5.6c-0.6,0-1-0.5-1-1.1
			V85.3l-2.5,2c-0.1,0.1-0.3,0.1-0.4,0l-0.7-0.8c-0.1-0.1-0.1-0.2,0-0.3l3.7-5.8c0.2-0.4,0.5-0.8,0.9-0.8h19.7c0.6,0,1.1,0.8,1,1.4
			l-0.4,2.6c-0.1,0.6,0.4,1.4,1,1.4h4c0.5,0,0.9-0.5,1-0.9c-0.3,0.1-0.5,0.1-0.8,0h-2.8c-0.8,0-1.4-0.6-1.4-1.4c0-0.1,0-0.2,0-0.3
			l0.5-2.9c0.2-0.9,0.7-1.7,1-1.7s0.7,0.8,0.7,1.7v0.4l-0.2-0.4h9.4C68.7,79.5,69.5,80.6,69.5,81.6z"/>
		<path class="st0" d="M21.4,67.8l-2.2,8.6h-0.4l2.2-8.6H21.4z M24.7,67.8l-4.9,8.6h0.4l4.9-8.6H24.7L24.7,67.8z M15.2,67.8l2.2,8.6
			h0.4l-2.2-8.6H15.2L15.2,67.8z M11.6,67.8l4.9,8.6h0.4L12,67.8H11.6L11.6,67.8z M24.2,79.3C24.2,79.3,24.2,79.4,24.2,79.3h0.9
			c0.3,0,0.5-0.2,0.5-0.5v-0.1l-0.2-0.9c0-0.3-0.1-0.6-0.2-0.6s-0.1,0.2-0.1,0.6V78c0,0.3-0.3,0.6-0.6,0.7h-0.2L24.2,79.3z
			 M26.4,57.5c-0.5,0-0.9,0.1-1.4,0.2c-0.3-3.2-3-5.5-6.2-5.2c-2.1,0.2-3.9,1.5-4.8,3.4c-2-0.7-4.2,0.3-4.9,2.3
			c-0.3,0.9-0.3,1.9,0,2.7c-0.1,0-0.3,0-0.4,0c-1.4,0-2.5,1.1-2.5,2.5s1.1,2.5,2.5,2.5l0,0h17.7c2.3,0,4.2-1.9,4.2-4.2
			C30.6,59.3,28.7,57.5,26.4,57.5z M23.9,78.6v2.9c0,0.3-0.2,0.6-0.5,0.6h-1.5c-0.3,0-0.6-0.3-0.6-0.6v-1.1c0,0.1-0.3,0.3-0.3,0.4v1
			c0,0.3,0.4,0.6,0.7,0.6h1.1v1.4c0,0.2-0.2,0.4-0.4,0.4h-1.8c-0.2,0-0.4-0.2-0.4-0.4v-1.4c0-0.2-0.1-0.3-0.3-0.3l0,0h-4.6
			c-0.2,0-0.5,0.1-0.5,0.3v1.4c0,0.2,0,0.4-0.2,0.4h-1.8c-0.2,0-0.3-0.2-0.3-0.4v-3.9l-0.8,0.6h-0.1l-0.2-0.3v-0.1l1.2-1.9
			c0-0.1,0.2-0.2,0.3-0.3h6.4c0.2,0,0.4,0.2,0.3,0.4l0,0l-0.1,0.9c0,0.2,0.1,0.4,0.3,0.5l0,0H21c0.2,0,0.3-0.1,0.3-0.3
			c-0.1,0-0.2,0-0.3,0h-0.9c-0.3,0-0.5-0.2-0.5-0.5v-0.1l0.2-0.9c0-0.3,0.2-0.6,0.3-0.6s0.2,0.3,0.2,0.6V78c0,0,0-0.1-0.1-0.1h3.1
			C23.7,77.9,23.9,78.3,23.9,78.6z"/>
		<path class="st0" d="M87.8,57.1L86.5,62h-0.2l1.3-4.9H87.8z M89.6,57.1L86.8,62H87l2.8-4.9H89.6z M84.2,57.1l1.3,4.9h0.2l-1.3-4.9
			H84.2L84.2,57.1z M82.2,57.1L85,62h0.2l-2.8-4.9H82.2z M89.4,63.6C89.4,63.6,89.4,63.7,89.4,63.6h0.5c0.1,0,0.3-0.1,0.3-0.3
			c0,0,0,0,0-0.1l-0.1-0.5c0-0.2-0.1-0.3-0.1-0.3c-0.1,0-0.1,0.1-0.1,0.3v0.1c0,0.2-0.2,0.4-0.4,0.4h-0.1
			C89.4,63.2,89.4,63.6,89.4,63.6z M90.6,51.1c-0.3,0-0.5,0-0.8,0.1c-0.1-1.8-1.7-3.2-3.5-3c-1.2,0.1-2.3,0.8-2.8,2
			c-1.1-0.4-2.4,0.2-2.8,1.3c-0.2,0.5-0.2,1.1,0,1.6c-0.1,0-0.2,0-0.3,0c-0.8,0-1.4,0.6-1.5,1.4c0,0.8,0.6,1.4,1.4,1.5h0.1h10.1
			c1.3,0,2.4-1.1,2.4-2.4C93,52.2,91.9,51.1,90.6,51.1L90.6,51.1z M89.2,63.2v1.6c0,0.2-0.1,0.3-0.3,0.3H88c-0.2,0-0.3-0.1-0.4-0.3
			v-0.6c0,0.1-0.2,0.1-0.2,0.3V65c0,0.2,0.2,0.3,0.4,0.4h0.6v0.8c0,0.1-0.1,0.2-0.3,0.2h-1c-0.1,0-0.2-0.1-0.2-0.2v-0.8
			c0-0.1-0.1-0.2-0.1-0.2l0,0h-2.6c-0.1,0-0.2,0.1-0.3,0.2v0.8c0,0.1,0,0.2-0.1,0.2h-1c-0.1,0-0.2-0.1-0.2-0.2l0,0V64l-0.5,0.4
			c0,0,0,0-0.1,0l-0.1-0.2c0,0,0,0,0-0.1l0.7-1.1c0-0.1,0.1-0.1,0.2-0.1h3.7c0.1,0,0.2,0.1,0.2,0.2l0,0l-0.1,0.5
			c0,0.1,0.1,0.2,0.2,0.3l0,0h0.7c0.1,0,0.2-0.1,0.2-0.2c-0.1,0-0.1,0-0.2,0H87c-0.1,0-0.3-0.1-0.3-0.3c0,0,0,0,0-0.1l0.1-0.5
			c0-0.1,0.1-0.2,0.2-0.3c0.1,0.1,0.1,0.2,0.1,0.3v0.1c0,0,0,0,0-0.1h1.8C89.1,62.9,89.2,63,89.2,63.2L89.2,63.2z"/>
	</g>
	<g>
		<path class="st1" d="M42.9,82.6c0,0-1.7,0.4-2.1,0.5c0.2-0.7,0.4-1.7,0.4-1.7l-1.1-0.1c0,0-0.6,0.8-1,1.4
			c-0.4-0.4-0.9-0.9-0.9-0.9l-0.9,0.6c0,0,0.1,0.7,0.2,1.3c-0.6,0.1-1.4,0.3-1.4,0.3l-0.4,1c0,0,0.7,0.3,1.2,0.5
			c-0.5,0.6-1.2,1.5-1.2,1.5l0.5,1c0,0,0.9-0.6,1.7-1.1c0.1,0.4,0.3,2.2,0.3,2.2h1.4c0,0,0.3-1.9,0.4-2.4c0.4,0.2,2.2,1,2.2,1
			l0.9-1.4c0,0-1.4-1.2-1.8-1.5c0.8-0.5,2-1.2,2-1.2L42.9,82.6z M42.3,83.5L40,84.8l1.8,1.7c-0.4-0.2-2.4-0.9-2.4-0.9l-0.5,2.6
			c-0.1-0.4-0.4-2.5-0.4-2.5l-2,1.3c0.5-0.6,1.5-1.9,1.5-1.9l-1.6-0.5c0.3,0,1.9-0.3,1.9-0.3L38,82.6c0.2,0.2,1.1,1.2,1.1,1.2
			l1.3-1.8c-0.1,0.3-0.5,2-0.5,2L42.3,83.5z"/>
		<path class="st1" d="M38.4,84.9c0,0.3,0.2,0.6,0.6,0.5c0.4-0.1,0.7-0.4,0.7-0.8c0-0.3-0.3-0.6-0.6-0.5
			C38.7,84.2,38.4,84.6,38.4,84.9"/>
	</g>
	<g>
		<path class="st1" d="M15.9,78.7c0,0-0.6,0.2-0.8,0.2c0.1-0.3,0.1-0.6,0.1-0.6h-0.4c0,0-0.2,0.3-0.4,0.5c-0.1-0.1-0.3-0.3-0.3-0.3
			l-0.3,0.2c0,0,0,0.3,0.1,0.5c-0.2,0-0.5,0.1-0.5,0.1l-0.1,0.4c0,0,0.3,0.1,0.5,0.2c-0.2,0.2-0.4,0.6-0.4,0.6l0.2,0.4
			c0,0,0.4-0.2,0.6-0.4c0,0.2,0.1,0.8,0.1,0.8h0.5c0,0,0.1-0.7,0.2-0.9c0.2,0.1,0.8,0.4,0.8,0.4l0.3-0.5c0,0-0.5-0.5-0.7-0.6
			c0.3-0.2,0.8-0.4,0.8-0.4L15.9,78.7z M15.7,79.1l-0.8,0.5l0.7,0.7c-0.2-0.1-0.9-0.3-0.9-0.3l-0.2,1c0-0.2-0.1-0.9-0.1-0.9
			l-0.7,0.5c0.2-0.2,0.5-0.7,0.5-0.7l-0.6-0.2c0.1,0,0.7-0.1,0.7-0.1L14.2,79c0.1,0.1,0.4,0.4,0.4,0.4l0.5-0.7
			c0,0.1-0.2,0.8-0.2,0.8L15.7,79.1z"/>
		<path class="st1" d="M14.2,79.6c0,0.1,0.1,0.2,0.2,0.2c0.1,0,0.2-0.1,0.2-0.3c0-0.1-0.1-0.2-0.2-0.2
			C14.3,79.4,14.2,79.5,14.2,79.6"/>
	</g>
	<g>
		<path class="st1" d="M84.4,63.3c0,0-0.3,0.1-0.4,0.1c0-0.1,0.1-0.3,0.1-0.3h-0.2c0,0-0.1,0.2-0.2,0.3c-0.1-0.1-0.2-0.2-0.2-0.2
			l-0.2,0.1c0,0,0,0.1,0,0.3c-0.1,0-0.3,0.1-0.3,0.1l-0.1,0.2c0,0,0.1,0.1,0.2,0.1c-0.1,0.1-0.2,0.3-0.2,0.3l0.1,0.2
			c0,0,0.2-0.1,0.3-0.2c0,0.1,0.1,0.4,0.1,0.4h0.3c0,0,0.1-0.4,0.1-0.5c0.1,0,0.4,0.2,0.4,0.2l0.2-0.3c0,0-0.3-0.2-0.4-0.3
			c0.2-0.1,0.4-0.2,0.4-0.2L84.4,63.3z M84.2,63.5l-0.5,0.3l0.4,0.3c-0.1,0-0.5-0.2-0.5-0.2l-0.1,0.5c0-0.1-0.1-0.5-0.1-0.5L83,64.2
			c0.1-0.1,0.3-0.4,0.3-0.4L83,63.7c0.1,0,0.4-0.1,0.4-0.1l-0.1-0.3l0.2,0.2l0.3-0.4c0,0.1-0.1,0.4-0.1,0.4H84.2z"/>
		<path class="st1" d="M83.5,63.8C83.5,63.9,83.5,63.9,83.5,63.8c0.2,0.1,0.2,0,0.2-0.1c0-0.1-0.1-0.1-0.1-0.1
			C83.5,63.7,83.5,63.7,83.5,63.8"/>
	</g>
</g>
</svg>
