<?xml version="1.0" encoding="utf-8"?>
<!-- Generator: Adobe Illustrator 22.0.0, SVG Export Plug-In . SVG Version: 6.00 Build 0)  -->
<svg version="1.1" id="Layer_1" xmlns="http://www.w3.org/2000/svg" xmlns:xlink="http://www.w3.org/1999/xlink" x="0px" y="0px"
	 viewBox="0 0 242.2 107.4" style="enable-background:new 0 0 242.2 107.4;" xml:space="preserve">
<style type="text/css">
	.st0{fill:none;}
	.st1{fill:#FFFFFF;}
</style>
<g>
	<path class="st0" d="M236.4,3.8h-1v1.5h1c0.5,0,0.9-0.3,0.9-0.8C237.3,3.9,236.8,3.8,236.4,3.8z"/>
	<path class="st0" d="M236.3,1.2c-2.2,0-4.3,1.3-4.3,4.4c0,3,2.1,4.4,4.3,4.4c2.2-0.1,4.2-1.4,4.2-4.4
		C240.5,2.5,238.5,1.2,236.3,1.2z M238.4,8.3h-1.2L236,6.1h-0.5v2.2h-1.1V2.8h2c1,0,2,0.3,2,1.7c0,0.8-0.6,1.3-1.3,1.5L238.4,8.3z"
		/>
	<path class="st1" d="M226.5,8.7c-0.8-4.8-2.7-8.7-4.1-8.7c-1.5,0-2.7,4-2.7,8.8v3.9c0,4.8-4,8.8-8.8,8.8H207c-0.3,0-0.6,0-0.8,0
		v10.7c0.3,0,0.6,0,0.8,0h14.7c4.8,0,8.1-3.9,7.3-8.6L226.5,8.7z"/>
	<path class="st1" d="M193.9,11h-23.7c-0.2,0-0.4,0-0.6,0h-24.4c-0.3,0-0.6,0-0.8,0.1V8.8c0-4.8-1.2-8.8-2.7-8.8s-3.3,3.9-4.1,8.7
		l-2.5,14.9c-0.8,4.8,2.5,8.7,7.4,8.7h14.6c1.5,0,2.9-0.2,4.2-0.6c-0.5,2.5-2.6,4.4-5.3,4.4h-20.5c-3.3,0-5.8-3-5.3-6.3l2.1-12.5
		c0.5-3.3-2-6.3-5.3-6.3H24.8c-2.2,0-4,1.3-4.9,3.2L0.7,43.5c-0.3,0.5-0.3,1.1,0.1,1.6l3.7,4.4c0.5,0.6,1.3,0.6,1.9,0.2l13.1-10.3
		V102c0,3,2.4,5.4,5.4,5.4h29c3,0,5.4-2.4,5.4-5.4V80.2c0-3,2.4-5.4,5.4-5.4h72.4c3,0,5.4,2.4,5.4,5.4V102c0,3,2.4,5.4,5.4,5.4h29
		c3,0,5.4-2.4,5.4-5.4V78.6h-15.4c-4.8,0-8.8-4-8.8-8.8V54.7c0-2.9,1.4-5.4,3.5-7v18c0,4.8,4,8.8,8.8,8.8h23.7c4.8,0,8.8-4,8.8-8.8
		V19.9C202.7,14.9,198.8,11,193.9,11z M74,46l-5.1,7.6c0,0-9.7-4.2-12-5.2c-0.5,2.6-2.4,13.2-2.4,13.2l-7.8,0c0,0-1.1-9.8-1.4-12.2
		c-3.9,2.5-9,5.8-9,5.8l-2.8-5.4c0,0,3.7-4.9,6.4-8.4c-3-1.1-6.8-2.6-6.8-2.6l2-5.6c0,0,4.4-0.9,7.8-1.6c-0.5-3.2-1.1-7.1-1.1-7.1
		l4.8-3.4c0,0,2.7,2.6,4.9,4.7c2.4-3.3,5.6-7.8,5.6-7.8l5.9,0.6c0,0-1.1,5.1-2,9c2.3-0.6,11.6-2.8,11.6-2.8l3,6.2
		c0,0-6.5,3.8-11.1,6.6C66.3,39.2,74,46,74,46z"/>
	<path class="st1" d="M58.4,21.7l-7.1,9.9c0,0-5.1-5.5-6-6.4l1.8,9.2c0,0-8.6,1.5-10.1,1.8l8.9,2.9c0,0-5.3,7-7.9,10.4l10.6-7
		c0,0,1.7,11.2,2.1,13.6l2.9-14.3c0,0,10.8,4.1,13.1,5l-9.9-9.5l12.3-7.5l-13.5,2.9C55.7,32.7,58,23.4,58.4,21.7z M51.1,40.5
		c-1.9,0.3-3.4-1.1-3.3-2.9c0.1-1.8,1.6-3.6,3.5-3.9c1.9-0.4,3.4,0.8,3.4,2.7C54.7,38.3,53.1,40.2,51.1,40.5z"/>
	<path class="st1" d="M236.2,0c-2.7,0-5.6,1.7-5.6,5.6c0,3.8,2.9,5.5,5.6,5.5s5.6-1.7,5.6-5.5C241.8,1.7,238.9,0,236.2,0z M236.3,10
		c-2.2,0-4.3-1.4-4.3-4.4c0-3.1,2.1-4.4,4.3-4.4c2.2,0,4.2,1.3,4.2,4.4C240.5,8.6,238.5,9.9,236.3,10z"/>
	<path class="st1" d="M238.4,4.5c0-1.4-1-1.7-2-1.7h-2v5.5h1.1V6.1h0.5l1.2,2.2h1.2L237.1,6C237.8,5.8,238.4,5.3,238.4,4.5z
		 M236.4,5.3h-1V3.8h1c0.4,0,0.9,0.1,0.9,0.7C237.3,5,236.9,5.3,236.4,5.3z"/>
</g>
</svg>
