<?xml version="1.0" encoding="utf-8"?>
<!-- Generator: Adobe Illustrator 22.0.0, SVG Export Plug-In . SVG Version: 6.00 Build 0)  -->
<svg version="1.1" id="Layer_1" xmlns="http://www.w3.org/2000/svg" xmlns:xlink="http://www.w3.org/1999/xlink" x="0px" y="0px"
	 viewBox="0 0 200 200" style="enable-background:new 0 0 200 200;" xml:space="preserve">
<style type="text/css">
	.st0{fill:#FFFFFF;}
</style>
<g>
	<path class="st0" d="M13.1,63.1h22.8v22.2H13.1V63.1L13.1,63.1z M41.1,63.1h22.8v22.2H41.1L41.1,63.1L41.1,63.1z M41.1,34.7h22.8
		v22.2H41.1C41.1,56.8,41.1,34.7,41.1,34.7z M69.1,63.1h22.8v22.2H69.1V63.1L69.1,63.1z M69.1,34.7h22.8v22.2H69.1V34.7z M97.1,63.1
		h22.8v22.2H97.1V63.1L97.1,63.1z M97.1,34.7h22.8v22.2H97.1V34.7z M125.1,63.1h22.8v22.2h-22.8V63.1L125.1,63.1z M97.1,6.2h22.8
		v22.2H97.1V6.2z"/>
	<path class="st0" d="M147.8,90.9h-30.9l40.2,38.7c-10.3-3.9-56.9-21.5-56.9-21.5l-12.8,62c-1.6-10.6-9.1-59-9.1-59l-46,30.2
		c11.2-14.8,34.3-45,34.3-45L50,90.9H13.1l-1.6,4.5c0,0,16.3,6.1,29.4,11.1C29.1,121.8,13,142.8,13,142.8l12,23.3
		c0,0,22.3-14.3,39.2-25.1c1.2,10.3,6.2,52.7,6.2,52.7l33.8,0c0,0,8.2-45.8,10.2-57.2c10,4.4,52,22.6,52,22.6l22.1-32.9
		C188.5,126.3,157.1,99,147.8,90.9z"/>
	<path class="st0" d="M89.2,102.5c6.4-0.9,12-5.7,14.4-11.5H75C75.2,98.5,81.2,103.7,89.2,102.5z"/>
</g>
</svg>
