<?xml version="1.0" encoding="utf-8"?>
<!-- Generator: Adobe Illustrator 22.0.0, SVG Export Plug-In . SVG Version: 6.00 Build 0)  -->
<svg version="1.1" id="Layer_1" xmlns="http://www.w3.org/2000/svg" xmlns:xlink="http://www.w3.org/1999/xlink" x="0px" y="0px"
	 viewBox="0 0 235 225" style="enable-background:new 0 0 235 225;" xml:space="preserve">
<style type="text/css">
	.st0{fill:#EC2224;}
</style>
<g>
	<g>
		<g>
			<path class="st0" d="M188.5,28c0,0-35.4,8.6-44.2,10.7c3.3-15.1,7.6-34.5,7.6-34.5L129.3,2c0,0-12.3,17.1-21.5,29.9
				c-8.4-8-18.7-18-18.7-18L70.5,27c0,0,2.4,15.2,4.4,27.3c-13.1,2.6-29.9,6-29.9,6l-7.5,21.3c0,0,14.4,5.4,26,9.8
				c-10.4,13.5-24.6,32.1-24.6,32.1l10.6,20.6c0,0,19.7-12.6,34.6-22.2c1.1,9.1,5.5,46.6,5.5,46.6h29.9c0,0,7.2-40.5,9-50.6
				c8.9,3.9,46,20,46,20l19.5-29c0,0-29.7-25.8-36.8-31.9C175,66.5,200,51.8,200,51.8L188.5,28z M175.7,46.8l-47.2,28.6l37.8,36.5
				c-9.1-3.5-50.3-19-50.3-19l-11.3,54.8c-1.4-9.3-8.1-52.2-8.1-52.2l-40.7,26.7c9.9-13.1,30.3-39.8,30.3-39.8l-33.9-11
				c5.9-1,38.9-6.9,38.9-6.9l-7-35.2c3.4,3.6,23.1,24.6,23.1,24.6l27-38c-1.6,6.4-10.4,42.2-10.4,42.2L175.7,46.8z"/>
			<path class="st0" d="M93.7,76.6c-0.4,7.2,5.1,12.3,12.6,11.2c7.6-1.1,13.9-8.3,13.9-15.8c0-7.3-6-11.8-13.2-10.4
				C100,63,94.1,69.6,93.7,76.6"/>
		</g>
		<g>
			<path d="M19.1,199.4c-1.2,0-2.7,0.2-2.7,1.8c0,2.2,5.9,1.4,7.4,1.4c6.6,0,11.6,1.5,11.6,9.6c0,9.2-6.3,10.5-13.6,10.5H8.1v-7.9
				c4.7,0,9.3,0.1,13.9,0.1c1.5,0,4.4-0.1,4.4-2.2c0-2.8-6-2-7.7-2c-6.5,0-10.3-2.2-10.3-9.6c0-8.4,5.4-9.5,12.1-9.5h15.2l-4.3,8
				C27.3,199.5,23.2,199.4,19.1,199.4"/>
			<path d="M55.9,223c-12,0-16.6-3.5-16.6-16.5c0-10.7,4.9-15.1,14.8-15.1c11.3,0,16.6,3.4,16.6,15.9C70.8,218.5,66.4,223,55.9,223
				 M60.7,207.7c0-4.4-0.8-8.7-5.9-8.7c-4.8,0-5.6,4.1-5.6,8.3c0,4.3,0.4,8.9,5.6,8.9C59.7,216.2,60.7,212,60.7,207.7"/>
			<rect x="75.6" y="180.6" width="9.4" height="42"/>
			<path d="M105.8,223c-12,0-16.5-3.5-16.5-16.5c0-10.7,4.9-15.1,14.8-15.1c11.3,0,16.6,3.4,16.6,15.9
				C120.7,218.5,116.4,223,105.8,223 M110.7,207.7c0-4.4-0.8-8.7-5.9-8.7c-4.8,0-5.6,4.1-5.6,8.3c0,4.3,0.4,8.9,5.6,8.9
				C109.6,216.2,110.7,212,110.7,207.7"/>
			<path d="M144.4,216.2l-4.2,6.4H138c-10.4,0-13.6-5.6-13.6-15.8c0-3.1,0.4-6.8,1.8-9.5c4-7.3,11.2-5.8,18.1-5.8v-10.9h9.4v42h-9.4
				L144.4,216.2L144.4,216.2z M144.4,214.7v-14.5h-3.3c-5.1,0-7,1.7-7,7.1c0,6.2,2.1,7.5,7.6,7.4H144.4z"/>
			<path d="M167.7,210.4c1.1,2.9,2.6,4.1,5.6,4.3c4.3,0.3,8.6,0,12.9,0l-4.1,7.9c-2.7,0-5.5,0.1-8.2,0.1c-1.6,0-3.2,0-4.8-0.1
				c-8.6-0.6-10.9-7.7-10.9-15.7c0-9.6,4.8-15.7,14.2-15.7c10.4,0,14.4,5.6,14.4,16.1c0,0.7,0.1,2.5-0.2,3.1L167.7,210.4
				L167.7,210.4z M177.3,203.7c-0.3-3.2-1.3-5.1-4.7-5.1c-3.1,0-4.9,1.8-5.2,5.1H177.3z"/>
			<polygon points="203,210.4 209.1,191.4 219,191.4 208.2,222.6 197.8,222.6 186.7,191.4 196.7,191.4 			"/>
			<g>
				<path d="M226.9,191.5c0,0.4-0.1,0.8-0.2,1.1c-0.1,0.3-0.3,0.6-0.6,0.9c-0.2,0.2-0.5,0.4-0.9,0.6c-0.3,0.1-0.7,0.2-1,0.2
					c-0.4,0-0.8-0.1-1.1-0.2c-0.3-0.1-0.6-0.3-0.8-0.6c-0.2-0.2-0.4-0.5-0.6-0.9c-0.1-0.3-0.2-0.7-0.2-1.1c0-0.4,0.1-0.8,0.2-1.1
					c0.1-0.3,0.3-0.6,0.6-0.9c0.2-0.2,0.5-0.4,0.9-0.6c0.3-0.1,0.7-0.2,1-0.2c0.4,0,0.7,0.1,1,0.2c0.3,0.1,0.6,0.3,0.9,0.6
					c0.2,0.2,0.4,0.5,0.6,0.9C226.8,190.7,226.9,191.1,226.9,191.5z M226.3,191.5c0-0.3-0.1-0.6-0.2-0.9c-0.1-0.3-0.3-0.5-0.4-0.7
					s-0.4-0.4-0.7-0.5s-0.5-0.2-0.8-0.2s-0.6,0.1-0.8,0.2c-0.3,0.1-0.5,0.3-0.7,0.5s-0.3,0.4-0.4,0.7c-0.1,0.3-0.2,0.6-0.2,0.9
					c0,0.3,0,0.6,0.1,0.9c0.1,0.3,0.2,0.5,0.4,0.7s0.4,0.4,0.7,0.5s0.5,0.2,0.9,0.2c0.3,0,0.6-0.1,0.8-0.2c0.3-0.1,0.5-0.3,0.7-0.5
					s0.3-0.4,0.4-0.7C226.3,192.2,226.3,191.9,226.3,191.5z M223.7,193.1h-0.5v-3h1.1c0.4,0,0.6,0.1,0.8,0.2
					c0.2,0.1,0.3,0.4,0.3,0.7s-0.1,0.5-0.2,0.6c-0.2,0.1-0.3,0.2-0.6,0.2l0.8,1.3h-0.6l-0.8-1.3h-0.5v1.3H223.7z M224.2,191.4
					c0.1,0,0.2,0,0.3,0s0.2,0,0.2-0.1c0.1,0,0.1-0.1,0.2-0.1c0-0.1,0.1-0.1,0.1-0.3c0-0.1,0-0.2-0.1-0.2c0-0.1-0.1-0.1-0.2-0.1
					c-0.1,0-0.1,0-0.2-0.1c-0.1,0-0.2,0-0.2,0h-0.6v0.9L224.2,191.4L224.2,191.4z"/>
			</g>
		</g>
	</g>
</g>
</svg>
